<svg xmlns="http://www.w3.org/2000/svg" viewBox="0 0 357.96 292.66"><path d="M354.66 91.65c.08-.72-1.34-.92-1.42-.2a61.22 61.22 0 0 0-.1 10.11c.07 1.22.19 2.48.29 3.74l-.08.19a.92.92 0 0 1 .36.79c0 .72-.1 1.44-.2 2.14l.07-.13a18.85 18.85 0 0 1-.2 3.26c-.28 1.74-1.67 2.7-2.84 4-1 1.12-1.61 2.4-2.51 3.56-1 1.33-2.57 2-3.9 3.05a20 20 0 0 0-2.41 3.57 1 1 0 0 1-.26.31.75.75 0 0 0 1.08.18l.27.41a5.39 5.39 0 0 0-.55-.12c-2.93-.47-8 1.27-10.8-.07a15.87 15.87 0 0 1 2.52-2.08l1.38-1.17q2.16-1.86 4.19-3.78c2.44-2.3 5.16-4.68 6.88-7.35 1.62-2.5 1.92-5.46 3.31-8s2.8-4.77 2.8-7.55c0-.73-1.43-.93-1.43-.19 0 3-1.82 5.42-3.17 8.08s-1.66 5.83-3.79 8.39a76.86 76.86 0 0 1-7.6 7.56q-2.33 2.11-4.82 4.15a17.21 17.21 0 0 0-1.38 1.13.64.64 0 0 0-.42-.25 11 11 0 0 0-.42-4.56c-.93-2.79-2.35-5.44-3.14-8.27a69 69 0 0 1-1.69-8.21c-.44-2.91-1.14-6-.51-8.83.16-.74-1.3-.94-1.46-.2-.53 2.39-.09 4.84.24 7.29a84.51 84.51 0 0 0 1.56 8.61 45.16 45.16 0 0 0 2.53 7.5 14 14 0 0 1 1.31 6.27.76.76 0 0 0-1.11.62c.59 4.28-2.52 8.92-5.68 12.23a32.52 32.52 0 0 1-12 7.77.75.75 0 0 0-.33.23h.08a42.15 42.15 0 0 0 10.63-4.59 29.69 29.69 0 0 0 3.34-3.15c2.45-2.7 4.71-6.08 5.36-9.5a.75.75 0 0 0 .92-.5q.1-.56.18-1.12a.71.71 0 0 0 .66.46c2.16 1.22 5.28.6 7.82.42a16.43 16.43 0 0 1 3.53-.14c1.8.29 2 1.18 2.59 2.28a6.27 6.27 0 0 0 .54.85 20.53 20.53 0 0 1 1.46 7.58c0 4.18-1.59 8.05-3.48 11.89 0-1.33-.28-2.68.28-4a.57.57 0 0 0-.42-.76c-.29 1.39-1 2.85-1.16 4.15-.38 2.91-1.27 5.68-4 7h-.09a31.66 31.66 0 0 1-4.06 3.64c-1.37 1-3.6 1.89-4.7 3.11s-1.22 2.8-2.15 4.07a33.6 33.6 0 0 1-4.73 4.83 20.22 20.22 0 0 1-6.07 4.08c-2.3.92-4.75 1.34-7 2.4a.72.72 0 0 0-.42.47.68.68 0 0 0-.71.45c-2 6.11-10.33 11.22-16.59 14.72a25.93 25.93 0 0 0-6.78 5.6c-1.63 1.73-3.38 3.4-5.18 5 .13-.27.24-.55.35-.81a.61.61 0 0 0 0-.37 11.34 11.34 0 0 1-6.15 5.32 1 1 0 0 1-1-.08l-.61-.09a45.21 45.21 0 0 1-7.37.39c-2.28-.18-4.74 0-7-.37a71.69 71.69 0 0 1-7.16-1.85c-4.69-1.27-9.78-2.3-13.94-4.47-2.76-1.45-4.87-4.7-8.78-4.14a1 1 0 0 0-.78.7c-.63 2.4-4.52 4.57-6.57 6.35-1.83 1.59-3.58 3.26-5.28 5a.63.63 0 0 0-.22.63c2.67-2.43 5.4-5.23 8.69-6.34l.93-.76c1.65-1.31 3.22-2.45 3.94-4.15 2.42 0 4.13 2.33 5.85 3.37a29.42 29.42 0 0 0 6.23 2.68 144.81 144.81 0 0 0 16 4.33c2.23.43 4.59.23 6.89.4a25.46 25.46 0 0 0 3.65.18c1.49-.1 3-.51 4.43-.47s2.77.31 4.11-.57a.85.85 0 0 0 .65-.23c3.06-2.71 6.12-5.39 8.87-8.25 1.41-1.46 2.63-3.22 4.34-4.43 1.56-1.1 3.45-1.94 5.09-2.95 5.72-3.49 12.91-8.22 14.76-14a.53.53 0 0 0 0-.07 1 1 0 0 0 .29-.08c2.52-1.19 5.35-1.61 7.85-2.76a21.11 21.11 0 0 0 5.27-3.66 46.51 46.51 0 0 0 4.6-4.48 14.88 14.88 0 0 0 1.59-2.22 16.23 16.23 0 0 1 1.15-2.55 10.26 10.26 0 0 1 2.27-1.47q1.51-1 2.88-2a32.62 32.62 0 0 0 4.5-4.28l.6-.52a44.59 44.59 0 0 0-2.1 5c-.89 2.64-1.53 5.35-2.61 8-2.21 5.37-6.35 10.16-10.52 14.85-16.24 18.45-37.26 35.65-61.77 50.51a349.05 349.05 0 0 1-40.49 21.34 14 14 0 0 1-3.89 2.4 1 1 0 0 1-1.09-.17 1.17 1.17 0 0 1-1.26-1.55 1.46 1.46 0 0 1-.15-.47 1 1 0 0 1 0-.52l.13-.31c.15-.2.31-.39.47-.58v-.05a14.43 14.43 0 0 0 2.94-7.87.84.84 0 0 0-1.68 0c-.23 3.74-1.89 6.11-4.15 8.83a101.42 101.42 0 0 1-43.58 23.47 86.38 86.38 0 0 1-17.31 2.6.92.92 0 0 0-.36-.06 19.88 19.88 0 0 1-4.13 0 27.77 27.77 0 0 1-4.61-.95 24.93 24.93 0 0 0-7.17-1.72l-4.63-.29a51.28 51.28 0 0 1-11.57-.71 17.42 17.42 0 0 1-6.25-2.51.61.61 0 0 0 .26.68c5.34 3.58 12.33 4.5 19.7 4.58a22.54 22.54 0 0 1 6 .92 34 34 0 0 0-8.65 1c-4.4 1.16-8.8 3-13.24 4.32-2.37.71-4.82 1.37-7.3 2a23.33 23.33 0 0 0 5.82-6.75.62.62 0 0 0-.24-1c-.13.17-.28.33-.42.49a1.35 1.35 0 0 1-.17.45 17.13 17.13 0 0 1-4.78 5 12.68 12.68 0 0 1-3.26 2l-.88.54-.11.08c-12.38 2.39-24.92 2.23-31.9-5a18.4 18.4 0 0 1-3.5-5.33 12.69 12.69 0 0 1-1.48-4.43 1.52 1.52 0 0 1-.11-1.15c-1.77-11.3 3.22-25.55 6.27-37 2.75-10.37 5.37-20.61 8.13-30.72.26-.95.53-1.9.81-2.86a1.18 1.18 0 0 0 1.5-.74c.31-1.21 0-1.75-.66-1.93 2.1-6.24 5.2-12.4 11.3-16.95l.07-.06c.74-.2 1.47-.42 2.12-.54a11.18 11.18 0 0 1 7.2.53c2.06 1 4 2 6.46 1.45a15.82 15.82 0 0 1-2.66-1 35.3 35.3 0 0 0-8.51-3 32 32 0 0 0-4.55.79c-2.5.58-3.47-.22-4.09-2a28.31 28.31 0 0 1-1-3.55 30.76 30.76 0 0 1-.43-9.15c1.11-11.29 8.28-22.25 18.9-29.76 1-.68 0-1.89-1-1.2-12 8.47-19.67 21-20 33.67a31.55 31.55 0 0 0 .59 7c-1.06-.2-2.51.22-3.64 0a15.75 15.75 0 0 0-2.61-.54c-2.61-.11-5.25 0-7.92.16a21 21 0 0 1-10.27-2.29c-2-1.07-4.1-1.49-5.6-3.21a31.84 31.84 0 0 0-5.23-4.32c-2-1.51-4.22-3-6.07-4.65-1.59-1.43-2.14-3.47-3.74-4.85a1.2 1.2 0 0 0-1.51.35c2.4 1.49 4.14 4.18 5.69 6.5.4.6.79 1.2 1.19 1.79.66.47 1.31.95 1.94 1.44 2.2 1.71 4.53 3.18 6.32 5.23a6 6 0 0 0 3.31 2.38c4.2 1.23 7.85 3.44 12.77 3.36 2.87 0 5.81-.4 8.62-.22 1.16.07 2 .5 3.08.66s3.27-.44 3.27 1c0 .62.68.75 1.23.53.43 1.65 1 3.6 3 3.84-5.26 4.64-8.22 10.53-10.24 16.51v.12l-1 .21c-1.38.3-2-.1-3.21-.14a17.93 17.93 0 0 0-3.74.6c-3.62.74-6.52 1.35-9.93.82a19.91 19.91 0 0 0-6.33 0 21.66 21.66 0 0 1-9.38-1c-2.87-.87-5.57-1.36-7.41-3.46-.94-1.08-1.43-2.31-3.31-2.25a1.38 1.38 0 0 0-1.23.86 15.43 15.43 0 0 1 3.76 2.59 39 39 0 0 1 3.52 2.94c.77.2 1.55.37 2.29.59 3.7 1.1 7.38 2 11.76 1.44a24.09 24.09 0 0 1 7.09.28 20 20 0 0 0 6.6-.57c1.29-.27 2.6-.65 3.88-.82a30.41 30.41 0 0 1 4 .07c.37 0 1.32-.26 2.12-.41-2.71 8.42-4.61 17-6.9 25.62-2.57 9.64-5.58 19.49-7.52 29.31-1.52 7.69-2.28 15.67.13 22.31a18.16 18.16 0 0 1-2.32 3.1 12.88 12.88 0 0 1-5.3 3.8c-4.33 1.49-9.08.11-13.32-1.06a31.32 31.32 0 0 1-10.13-4.31 13.66 13.66 0 0 1-4-4.46 13.64 13.64 0 0 0-1.86-2.83 1.41 1.41 0 0 1 .4-.24c-2.58-4.2-4-9.13-5.88-13.73-2.12-5.3-4.47-10.48-6.86-15.64-5.43-12-11.16-24-14.64-36.91a16.72 16.72 0 0 1-1.17-4.73 89.27 89.27 0 0 1-1.91-12.72 11.31 11.31 0 0 0 1.6.65 5.17 5.17 0 0 1 2.66 2.93c-.14.44-.27.87-.38 1.31a1.11 1.11 0 0 1 .54 1.09 38.21 38.21 0 0 0 0 6.59c.07-.8.15-1.6.26-2.39a22.26 22.26 0 0 1 1-3.88c0-.36.06-.71.11-1.07a1.79 1.79 0 0 0 .29-.13c.2-.6.4-1.2.58-1.81a1.26 1.26 0 0 0-.29-.57l.25-.67a12.76 12.76 0 0 0 1.2-3.31c.15-1.52-.33-3.58-1.58-4.44s-6.07-.57-6.21-1.97a.66.66 0 0 0-.23-.45q.07-2.66.33-5.37c1.28-13.22 5.57-26.5 10.34-39.34a212.85 212.85 0 0 1 13.66-30.26 130.56 130.56 0 0 1 7.82-12.29c1.47 2.6 4.76 4 8.51 4.26a17.65 17.65 0 0 1-.87 4.21c-1 2.87-1.37 5.82-2.49 8.68a33 33 0 0 1-5.12 9 69.23 69.23 0 0 1-8.15 8.74 63.5 63.5 0 0 1-6.48 5.52c.77-.33 1.53-.68 2.28-1.06 1.41-.72 2.8-1.48 4.16-2.29a67.46 67.46 0 0 0 5.18-4.91c4.83-5.14 8.83-10.25 10.58-16.29.47-1.61.51-3.22 1-4.82.4-1.31 1-2.56 1.38-3.87.83-3.08.46-6.16 1.36-9.2 1-3.37 1.35-7 3-10.25a20.93 20.93 0 0 1 3.61-5 24.12 24.12 0 0 1 3.49-3.4.75.75 0 0 0-.29-1.43 94.85 94.85 0 0 1 17.7-10.83 35.74 35.74 0 0 0 6.75-4.29l1.25-.86c5.85-2.93 11.53-7.85 17.19-12.34l6.25-3.48c4.18.62 8.44 1.14 12.48 2 3.58.79 5.5 2.89 4 6a20 20 0 0 0-1.53 4.95c-.81 3.86-4.33 6.24-7.79 8.75a53.08 53.08 0 0 0-9.22 8.82.69.69 0 0 0-.14.75 50.63 50.63 0 0 1 8.35-6.45 67.66 67.66 0 0 1 13.8-8.81c1.1-.83 2.23-1.63 3.39-2.38.92-.59 1.89-1.22 2.9-1.81a72.41 72.41 0 0 0-11.2 5.06l.3-.43c1.37-2.11 1.19-4.4 2.06-6.58.68-1.71 1.75-3.12 1.29-5a5.22 5.22 0 0 0-3-3.38c-2.09-1-4.71-1.21-7.07-1.59l-6.62-1.07 3.08-1.71a164.94 164.94 0 0 0 18.31-8 .91.91 0 0 0 .56.16c3.22 0 5.76-1.39 8.63-2.36a21.36 21.36 0 0 1 5.59-1c2.22-.15 4.43-.59 6.6 0a16.38 16.38 0 0 0 3.44.79 9 9 0 0 1 5.59 2.38c.93.82 1.35 3.29 2.92 3.42a44.43 44.43 0 0 1-4.47 1.19 19 19 0 0 1-6.38-.4 30 30 0 0 0-8.28 1.31l-.58.22a1.06 1.06 0 0 0 .28-.07c3.47-1.39 6.42-.36 9.9.22a19.2 19.2 0 0 0 6.23-.07 21.48 21.48 0 0 0 3.28-.9c-.16.79-.26 1.6-.45 2.36-.53 2.22-.55 14.28-1.06 16.52-.94 4.11-.08 8.27.84 12.34-5 4-9.88 8.64-13.07 13.9a10.23 10.23 0 0 1-4.3 3.87 18.39 18.39 0 0 0-3.49 2.62 11.2 11.2 0 0 0-1.43 1.58 22.53 22.53 0 0 0-.35-2.51 8.11 8.11 0 0 0-5.93-6.59 1.08 1.08 0 0 0-1 .2 1.4 1.4 0 0 1 .28.11 10.54 10.54 0 0 1 4.16 3.21 7.3 7.3 0 0 1 1 4.56c.28 1.92.34 4.38-.8 5.06a.66.66 0 0 0-.37.78c-4.46 6-8.94 12.11-13.07 18.48-1.75 2.7-3.43 5.44-5 8.23-.26.17-.53.34-.81.5-2.35 1.35-5.08 2.12-7.55 3.4a30.33 30.33 0 0 0-5.89 3.75c-2.76 2.33-6 5.07-9.9 3.86-2.84-.88-4.27-3.5-6-5.46a10.54 10.54 0 0 1-.8-1.08 12.51 12.51 0 0 1-4-5.83c-.58-1.83-.75-3.77-1.35-5.59a20.78 20.78 0 0 0-3-5.39.56.56 0 0 0 .13.56c.79.92.92 2.51 1.23 3.62.4 1.43.79 2.85 1.3 4.24a77.56 77.56 0 0 0 3 7.84 29.11 29.11 0 0 0 4.79 6.21 8.08 8.08 0 0 0 5.73 2.76c5.88.45 9.65-5.19 14.2-7.56 2.42-1.26 5-2.14 7.4-3.32l-.23.41c-1.64 3-3.59 6.32-4.36 9.59-.5 2.11-.51 4.49 1.29 5.92 2.65 2.1 7.26.83 10.61 1.65 3.59.88 6.61 1.33 10.52.11 4.16-1.29 7.84-3.71 11.26-6.06a.76.76 0 0 0 .38-.64 22.17 22.17 0 0 1-3.79 2.39 31.71 31.71 0 0 1-8.35 3.23 1.25 1.25 0 0 1-.81-.11 13.39 13.39 0 0 1-5.55.31c-1.7-.28-3.23-.93-5-1.14-3.51-.42-8.68.89-9-3.28-.26-3 1.8-6.37 3.25-9.19q1.06-2.06 2.19-4.09a4.15 4.15 0 0 1 .22-.6l.21-.42.07-.12.2-.35.05-.09.26-.4.27-.43.6-1c.21-.33.43-.67.66-1 5.28-8.76 11.39-17 17.39-25.09a.67.67 0 0 0 .27.12l.33-.62c.15-.27.33-.59.53-.9-.87-2.52 5.5-5.26 7.18-6.43 2-1.41 2.78-3.57 4.07-5.38 3.51-4.88 8.52-9.33 13.47-13.06a38.08 38.08 0 0 1 11.51-6.08.91.91 0 0 0 1.32-.37 26.69 26.69 0 0 1 5.36-.82 25.84 25.84 0 0 1 10 1.64c1.91.69 3.69 1.79 5.69 2.23a6.62 6.62 0 0 0-1.7 3.93v.22a12.24 12.24 0 0 1 3.87-3.7c3.72-3.27 11.17-4.2 15.36-1.51a.71.71 0 0 0 .22.23 27.68 27.68 0 0 1 5.28 4.44c1.34 1.55 2.43 3.23 3.78 4.77 2.89 3.27 6.52 6.14 9.86 9.09.69.6 2-.13 1.28-.74-3.54-3.12-7.44-6.16-10.39-9.7-1.38-1.67-2.53-3.46-4.07-5a31.76 31.76 0 0 0-4.69-3.76.68.68 0 0 0-.24-.25c-4.59-2.95-12.38-2.29-16.84.93h-.15c-2 0-4.21-1.46-6-2.14a33.79 33.79 0 0 0-4.41-1.36 26.36 26.36 0 0 0-10-.29c-.54.09-1.08.19-1.6.31a18.74 18.74 0 0 1 3.74-5.13 6.13 6.13 0 0 0 1.14-1.62.76.76 0 0 0 .77-.2 33.65 33.65 0 0 1 10.14-6.74 12.2 12.2 0 0 1 2.92-.88c1.35-.5 2.73-.89 4.13-1.29a19 19 0 0 0 4.6-1.74.8.8 0 0 0-.8 0c-2.18 1.26-4.73 1.13-7.3 1.46l-.55.12a25 25 0 0 1 2.31-2.23 36.82 36.82 0 0 0 3.6-2.77 4.14 4.14 0 0 0 .88-1.37 18.56 18.56 0 0 1 5-1.15 9.42 9.42 0 0 1 5.75 0c2.15.54 4.06 1.95 6.11 2.77a11.14 11.14 0 0 0-2.6-1.65c-1.47-.74-2.86-2-4.56-2.29-.27-.05-.56-.08-.84-.12l.22-.16h.19a22.58 22.58 0 0 0 4.72-.88c1.77-.61 3.12-1.72 4.74-2.5h.13a12 12 0 0 0 2.17-.87 10.38 10.38 0 0 1 4.35-.23 62.16 62.16 0 0 1 6.51 1.1c2.13.5 4.14 1.34 6.27 1.79.89.19 1.83.21 2.72.41a8 8 0 0 1 2.47 1.12 11.79 11.79 0 0 1 3.1.93 16.94 16.94 0 0 0 4.76 1.05 19.56 19.56 0 0 1-2.12-1.32 8.19 8.19 0 0 0-1.41-.41 11 11 0 0 1-3.47-1.22 14.21 14.21 0 0 0-1.35-.79c-1.66-.75-3.55-.73-5.31-1.19-2.27-.59-4.42-1.4-6.74-1.86a52.21 52.21 0 0 0-5.82-1 10.16 10.16 0 0 1 3.47-2 18.31 18.31 0 0 1 4.49-.4c3.29-.12 6.21-1.22 9.42-1.33 2.1-.07 3.11-1.22 4.81-2.07 2.77-1.37 6-1.51 9.3-1.57a.93.93 0 0 0 .46.14c2.14.11 3.77-.84 6-.51 1.84.28 3.75.68 5.56 1.12 1.22.29 2.33.77 3.51 1.13a10.23 10.23 0 0 1 1.55.35c2 1.17-1.19 2.81-2.21 3-2.69.56-6.75-.71-8.62 1.38a2.39 2.39 0 0 0-.5.9 7.39 7.39 0 0 0-.6-.74c-.52-.55-1.19-1-1.74-1.51-1.09-1-.62-1.29-.07-2.17a.58.58 0 0 0-.46-.82 1.35 1.35 0 0 1-.54 1.1c-1.11.86-.21 2.22.82 3.39a9.88 9.88 0 0 1 1.95 2.25 13.19 13.19 0 0 1 1.52 2.83l.26.43.27.39a.71.71 0 0 0 .45.28 5.17 5.17 0 0 1-.49-1.33v-.14a4.78 4.78 0 0 1-.39-1.56 2.5 2.5 0 0 1 .44-1.5c.19-1.43 1.81-1.83 3.58-1.87 1.41 0 2.8 0 4.16-.11a.89.89 0 0 0 .23.06c1.48.2 3 .32 4.47.63a28.11 28.11 0 0 1 3.8 1.53c1.35.47 2.73.69 4.06 1.26s3.25.87 4 1.89a.89.89 0 0 0 .85.26h.11l.12-.05a9 9 0 0 0-3.49-2.12 24.44 24.44 0 0 1-4.55-2.13 7.84 7.84 0 0 1-1.43-.48 17.28 17.28 0 0 0-2.23-1 16.76 16.76 0 0 0-2.5-.5l.25-.13a.5.5 0 0 0 .27-.36l.54-.48a1.28 1.28 0 0 1 1.34-.15 3 3 0 0 0 1.14 0 .46.46 0 0 0 .43-.45c2.94-1.1 6.16-2.09 9.64-.84a.73.73 0 0 0 .93-.28q2 .78 3.89 1.58a.64.64 0 0 0-.85.53c.23 5.53 6.21 7.38 11 10.56 2.31 1.53 4.25 3.29 6.89 4.43a12.64 12.64 0 0 1 2.31 1.02c1.23.89 1.11 1.82 1.58 2.88a6.68 6.68 0 0 0 2 2.5.71.71 0 0 0 .5.19 14.12 14.12 0 0 1-1.57-2.6c-.79-1.47-1.66-2.91-2.58-4.3-1.1-.55-2.3-.93-3.37-1.55a32.77 32.77 0 0 1-3.14-2.2c-2.07-1.54-4.7-2.78-7-4.2a22.63 22.63 0 0 1 8.49.3c1.89.5 3.59 1.38 5.44 1.9a88.25 88.25 0 0 1 20.42 16.81q1.06 1.17 2.09 2.35a16.33 16.33 0 0 1-3.86-.83c-1.13-.45-3.84-1.25-4.57-2a.83.83 0 0 0-1.11-.09 3.43 3.43 0 0 0-.25.38c0-.36-.09-.73-.14-1.09a1.28 1.28 0 0 1-.4-.44c-.77-1.33-1.38-2.74-2.12-4.08a.52.52 0 0 0 0 .17 25.16 25.16 0 0 1 1.42 9.67 23.48 23.48 0 0 0-9.34-6.58 22.91 22.91 0 0 0-12.68-.85 4.87 4.87 0 0 0-2.89-1.54 46.81 46.81 0 0 0-5.23-.92 19 19 0 0 0-4.72.47q-3.48.55-7.06.85a15.1 15.1 0 0 0-3.92.57 7.93 7.93 0 0 0-3.62 3.09 26.88 26.88 0 0 0-.66-10.28.68.68 0 0 0-.39-.45 13.26 13.26 0 0 0 .21 2.64c.06.83.13 1.68.14 2.52a8.93 8.93 0 0 1-.39 2.61 15 15 0 0 1-.25 2.38c-.08.4-.17.79-.28 1.17a11.91 11.91 0 0 1-.78 2.29l-.24.18a11.87 11.87 0 0 1-.73 1.08.67.67 0 0 0 .12.14c-2.79 4.06-7.56 6.54-12.66 8.65-.85.35.07 1.37.91 1 5.38-2.23 10.33-4.89 13.19-9.22a10.69 10.69 0 0 0 .71-1.28c1.37-1.3 2.18-2.87 3.54-4.22 2.34-2.33 7.25-1.93 10.76-2.42a43.07 43.07 0 0 1 5.26-.75 28.39 28.39 0 0 1 5.19.8 5.35 5.35 0 0 1 2.64 1.16.74.74 0 0 0 .64.68 8.33 8.33 0 0 1 .72 1.1l.08.14a8.09 8.09 0 0 0 2.5 1.22 8.52 8.52 0 0 1-2-2.65 21.26 21.26 0 0 1 14.56 2.22c2.72 1.53 4.58 3.66 6.68 5.64v.37a.78.78 0 0 0 1.1.61c.46.39.93.78 1.44 1.14a66.93 66.93 0 0 1 10.22 8.91 16.18 16.18 0 0 1 3.56 5.91 4 4 0 0 0 2 2.36 10.52 10.52 0 0 1-1.85-3.59 44.92 44.92 0 0 0-3.5-6.25c-.6-.6-1.21-1.2-1.83-1.78q-2.32-2.21-4.91-4.23c-1.47-1.16-3.11-2.2-4.56-3.39.53-1.56-.07-3.39.62-4.87a30.62 30.62 0 0 0 3.67 1.49 14.93 14.93 0 0 0 2.31.87 24 24 0 0 1 4 .76l.55.66a.63.63 0 0 0 .36.43 88.49 88.49 0 0 1 11.15 16.73 46.54 46.54 0 0 1 3.82 10.54.64.64 0 0 0-.6.29c-.19.33-.36.66-.54 1a69.12 69.12 0 0 1-2.25-10.69.61.61 0 0 0-.59-.5 1.31 1.31 0 0 1 .12.38c.6 4.35 2.19 8.73 2.33 13.12a.68.68 0 0 0 .86-.26c.3-.62.63-1.23 1-1.83a37.74 37.74 0 0 1-1.11 18.77 63.62 63.62 0 0 1 .06-10.51m-347 98.12l-.21.61a7.89 7.89 0 0 0-.79-.92 4.14 4.14 0 0 0-1.44-.9c-.3-.12-1.73-.41-1.67-.78.12-.77-.77-.85-1.43-.48q-.13-1.51-.13-3.06l.73.2c1 .26 2 .36 3 .61 2.13.56 2.59 2.6 1.91 4.72m43.14-113.86c-.42.48-.82.94-1.19 1.38a20.23 20.23 0 0 0-4.08 7.43c-.4 1.48-.51 3-.91 4.45s-1.15 3.15-1.42 4.76c-.17 1-.26 2-.34 3-3.41-.31-6.49-1.68-7.32-4.44a107 107 0 0 1 15.26-16.58m83.3-49.77c9.3-5.4 18.29-10.61 28.14-14.63a1 1 0 0 0 .26 0c3.64-.4 7.3-1 10.95-1.18a9 9 0 0 1 5.19 1.35c1.38.71 2.86.86 4.25 1.5a1 1 0 0 0 .8 0c2.58-1.36 5.56-1.59 8.54-2 1-.14 1.92-.31 2.87-.47a16.8 16.8 0 0 1 4.64-.76l1-.22a13.91 13.91 0 0 0 1.94-.61c-3.35-.51-6.46.11-9.72.63-1.74.28-3.52.45-5.26.75-1.43.25-2.88 1.06-4.27 1.24-3 .38-5.34-2.45-8.27-2.71a30 30 0 0 0-5.75.43l-2.56.27c5.82-2.14 11.76-4 17.75-5.54a1.8 1.8 0 0 1-.12-.32 113.17 113.17 0 0 1 32.54-2.27 121.41 121.41 0 0 1 17.88 2.69q4.12.93 8.12 2.14h.21a52.58 52.58 0 0 0 6.06 1.61 1.59 1.59 0 0 1 .07.26 1.06 1.06 0 0 1 1.1.06l.2.13c.18 0 .35.12.52.17a9.49 9.49 0 0 0 1 .22l-.14-.14c2.44.43 4.89 1 7.33 1.58a201 201 0 0 1 21.77 7.15 4.06 4.06 0 0 0 .7 1.6 1.76 1.76 0 0 1-.68 2.5.54.54 0 0 0-.19.17l-.85.32a.6.6 0 0 0-.17.1 6.69 6.69 0 0 0-.78-.14 2.6 2.6 0 0 0-.45 0 1 1 0 0 0 0-.94c-.36-.89-1.35-1-2.26-1.28-1.8-.51-3.6-1.16-5.45-1.57a60.81 60.81 0 0 0-6-1.17c-2-.23-3.45.62-5.36.58h-.06a1.21 1.21 0 0 1-.66 0l-.47-.12a25.19 25.19 0 0 0-7.81 1 18.85 18.85 0 0 0-3.63 2.01c-1.15.72-.63.51-2.5.58a8.84 8.84 0 0 0-1.21.09c-2 .36-3.72 1-5.81 1.2-1.65.15-3.37 0-5 .23-.29 0-.56.08-.83.14 1.12-1.72 1-3.61 1.51-5.82a.49.49 0 0 0 0-.29c-.78 1.39-1.37 2.94-2 4.38a4.6 4.6 0 0 1-1.63 2c-.14.13-.29.27-.46.4-1 .81-2.42 1.05-3.56 1.72-.87.51-1.58 1-2.39 1.46a20.68 20.68 0 0 0-3.94 1.8 15.78 15.78 0 0 1-5.44 2.06 5.52 5.52 0 0 0 .94-1.43c.53-1.21.18-2-.08-3.23a36 36 0 0 0-.66-3.78c-.66-2.06-2.06-3-4-4 2.2 3.23 5.32 7.46 3 10.86a8.85 8.85 0 0 1-3.63 3.19 22.69 22.69 0 0 0-6.36 1.09c-.22-1.45-.84-4.06-1.11-4h.15c-.07-.18-.13-.36-.18-.54v-.13c-.39.82-.07 2.15-.08 2.95a5.62 5.62 0 0 1-.34 1.9 2.31 2.31 0 0 1 0 .56.44.44 0 0 0-.13.44c-.6 1.48-2.34 2.26-3.68 3.33a32.8 32.8 0 0 0-4.07 4.09 20 20 0 0 0-2 .9 38.94 38.94 0 0 0-8.79 5.67c0-.35.06-.72.1-1.14l.09-26.21a.51.51 0 0 0-.35-.54c-.65 2.31-.47 5-.65 7.41a51.58 51.58 0 0 1-.68 7.37c0 4.47.06 8.74-.12 11-.12 1.51-.14 3-1.09 4.37-.6.85-1.49 1.6-2.17 2.42a13.38 13.38 0 0 0-2.57 4.4 40.21 40.21 0 0 0-13.28 7.15c-.86-3.87-1.53-7.81-.45-11.7.5-1.83.29-13.52.76-15.34a39.76 39.76 0 0 1 .83-3.93 3.86 3.86 0 0 0 .47-.35.77.77 0 0 0 .51-.43 24.34 24.34 0 0 1 10.06-11.68 29.08 29.08 0 0 1 5.66-2.58l.68-.28.16-.13a.92.92 0 0 1 .6-.18l4.15-1.69a27.7 27.7 0 0 1 4-1.24.89.89 0 0 0-.74-.15c-6 1.32-11.73 2.75-16.75 6a24.33 24.33 0 0 0-8.94 10.45.9.9 0 0 0-.68.34.75.75 0 0 0-.78-.11 11.08 11.08 0 0 0-1.47-2.37 13.81 13.81 0 0 0-3.24-2.43 7.66 7.66 0 0 0-3-.9 16.3 16.3 0 0 1-3.85-.68 8.38 8.38 0 0 0-1.92-.49 23.73 23.73 0 0 0-4.56.22 37.19 37.19 0 0 0-5 .49c-2.73.57-5.09 2-7.79 2.56q1.66-.9 3.28-1.85m154.6-5.72a14.8 14.8 0 0 0-5.15.59 2.38 2.38 0 0 0 .08-.4 2.94 2.94 0 0 0-.19-1.37c-.12-.32-.45-.73-.64-1.11q3 1.13 5.9 2.29m21.68 9.47a13 13 0 0 0-1.47-.33 28.05 28.05 0 0 0-7.92 0 .47.47 0 0 0-.4.24c-2.16-1.54-3.78-3.35-3.9-5.93a.5.5 0 0 0-.21-.38c4.75 2 9.42 4 13.9 6.36m44.44 75.83a37.51 37.51 0 0 0 2.65-21.3c-1.4-8.27-5.57-16.31-10.88-23.74-1.61-2.28-3.32-4.53-5.13-6.75a1.76 1.76 0 0 0-1.13-1.36 101.16 101.16 0 0 0-12.07-12.19 85 85 0 0 0-10.15-7.33.56.56 0 0 0-.52-.83 11.87 11.87 0 0 1-1.26-.25c-12.56-7.57-27.38-13-41.5-17.94a149.89 149.89 0 0 0-22.73-6.38.5.5 0 0 0-.41-.32 56.64 56.64 0 0 1-8-2h-.16q-3.31-1-6.67-1.8a124 124 0 0 0-18.21-3 114.11 114.11 0 0 0-37.4 2.87.56.56 0 0 0-.44.58 170.58 170.58 0 0 0-36.48 14.63c-9.77 5.44-19.13 11.33-30.22 15.76a.6.6 0 0 0-.83-.26l-10.84 6c-3.61 1.27-7.13 3.77-10.62 6.67a.56.56 0 0 0-.54.3l-.21.33c-.88.75-1.76 1.51-2.63 2.29-.85.55-1.73 1.06-2.44 1.55l-5.39 3.8c-2.13 1.49-4.27 3-6.51 4.26a99.94 99.94 0 0 0-24.68 15.45 105.35 105.35 0 0 0-14.54 15.75 1 1 0 0 0-1.4.82 7.09 7.09 0 0 0 .09.95q-2.87 3.95-5.43 8.07a192.5 192.5 0 0 0-15.23 31.07c-5.05 12.81-9.65 26.12-11.8 39.45-4.33 27.1 5.87 49.95 16 72.28 2.66 5.78 5.32 11.56 7.69 17.5 1.66 4.14 3 8.5 5.11 12.41a1.07 1.07 0 0 0 .32 1.51 5.34 5.34 0 0 1 1.48 1.48l.08.11.07.1a38.45 38.45 0 0 0 2.68 4.21 18.81 18.81 0 0 0 5.52 4 48.4 48.4 0 0 0 14.64 4.37c5.08.71 9.73-.51 13.37-4.35a22.71 22.71 0 0 0 2.28-2.81c5.82 11.21 21.15 12.65 36.42 9.72a118.09 118.09 0 0 0 12.66-3.2c5.27-1.62 10.65-4.08 15.86-4.79 4.24-.58 8.23-.16 12.27 0l.85.17a6.23 6.23 0 0 0 2.38-.16 84.15 84.15 0 0 0 12.4-1.27 104.08 104.08 0 0 0 51.23-25.1.64.64 0 0 0 .41-.1 2.51 2.51 0 0 0 1.34 2.49c1.37.69 3.08-.09 4.24-1.07 28.94-12.64 55-28.43 76.67-46.14a240.31 240.31 0 0 0 28.31-26.71c4.17-4.64 8.36-9.38 10.86-14.63s3.54-11 6.2-16.21c2.8-5.49 5.7-10.81 5.54-16.77a21.32 21.32 0 0 0-.79-5.13l-.12-.05a2.18 2.18 0 0 1-.88-2.7 25.5 25.5 0 0 0-2.61-4.69 8.78 8.78 0 0 1 1.94-2.34 15.57 15.57 0 0 0 3.79-3c.9-1.16 1.54-2.45 2.5-3.56s2.19-2 2.75-3.31c.62-1.44.43-3.15.4-4.67 0-.87-.05-1.75-.09-2.62m-338.49 51.42l.32.48.19.3c.17.26.33.52.48.79v.07q.23.4.45.81l.07.13a18 18 0 0 1 .83 1.87c.12.33.23.65.33 1a13.07 13.07 0 0 1 1.46 4.34v.11c-.64 2.58-1.35 5.15-1.84 7.74-.26 1.35-1.1 3-1.44 4.52a9.06 9.06 0 0 0 1.45-1.4 29.87 29.87 0 0 0 3-5.3 1.33 1.33 0 0 1 .23-.33 22.81 22.81 0 0 0 .8-2.43l.06-1a15.3 15.3 0 0 0-.15-2.21q.37-1.56.66-3.11a23.25 23.25 0 0 1 .71-6.76c.09-.59.2-1.17.34-1.75a1.14 1.14 0 0 0-.58.24 3.22 3.22 0 0 0-1.6 2.68c-.24 1.51-.47 3-.73 4.52-.19-.43-.4-.85-.63-1.26-.75-1.26-1.91-2.26-2.69-3.6l-.24-.4v-.1a.57.57 0 0 0-.42-.64 6.43 6.43 0 0 0-1.09-1.43 1.19 1.19 0 0 0-1.4.2q.62.78 1.2 1.6l.23.34m26.56-5.08a12.92 12.92 0 0 0-3.08 2.67c-1.95 1.82-3.54 3.81-5.29 5.77-2.64 3-7 6.73-8.17 10.3a.7.7 0 0 0 0 .46c3.09-4.2 5.87-8.76 10.66-11 .88-1 1.74-2.09 2.69-3.08s2.61-3 3.69-3.54.71-2.1-.5-1.53m-7.84 110.04c-.67-.85-.67-2.37-1.16-3.31-.83-1.59-2-2.95-2.68-4.61-1.22-2.83-2.52-5.59-3.49-8.53-1.08-3.27-2.44-6.43-3.46-9.71a43.38 43.38 0 0 1-1.47-11.27v-.76a1.31 1.31 0 0 1 0-.28c0-.08 0-.17-.06-.26a4.84 4.84 0 0 1 0-1.82v-.32l.06-.29a70.17 70.17 0 0 1 .93-8.63 54.8 54.8 0 0 1 1-6.62 24.82 24.82 0 0 0 1.09-4.75 30.22 30.22 0 0 0 0-5.11c-.78-1.62-1.65-3.22-2.45-4.86a48.46 48.46 0 0 1-2.31-6.24 12.36 12.36 0 0 1-.68-3.19 1.43 1.43 0 0 0-.15.18c-1.36 1.95.6 4.49 1.17 6 1.45 3.94 2.66 7.58 2.46 12.1a32.09 32.09 0 0 1-1.39 6.77 45.5 45.5 0 0 0-.74 5.53c-.24 1.73-.47 3.45-.65 5.16a1.1 1.1 0 0 0-1.26.41c-.1.11-.25.26-.35.4a2.62 2.62 0 0 0-.84-.3 1.07 1.07 0 0 1-1.36.55c-.92-.32-1.81-.75-2.73-1.06a5.52 5.52 0 0 0-2.9 0v.14c.14.75 1.16.54 1.72 0a3.15 3.15 0 0 1 .69.31c.35.2.67.43 1 .66a9.22 9.22 0 0 0 2.42 1.34 4.08 4.08 0 0 0 2.36.2 2.13 2.13 0 0 0 1.08-.81q-.12 1.46-.18 2.9a19.07 19.07 0 0 0-1.67 1.24c-.74 2.3-2.2 5.63-5 4.7a1.23 1.23 0 0 1-.68-.53.72.72 0 0 0 0 .81 5.7 5.7 0 0 1 .55.73.86.86 0 0 0 .91.24c1.32-.35 2.28-1.64 3.09-2.59a16.53 16.53 0 0 1 2.75-2.56v2.1a42.8 42.8 0 0 0 1.38 10.34c1 3.6 2.51 7.06 3.71 10.59a74.68 74.68 0 0 0 3.89 9.32c.82 1.64 2.09 3 2.69 4.76.4 1.16.44 2.13 1.41 2.89.54.42 1.56-.23 1.81-.88l.08-.2a.6.6 0 0 0-.61-.89m48.51-201.37a40.1 40.1 0 0 1 5.77-6.86c-.9.77-1.73 1.78-2.62 2.57q-1 .92-2 1.91a78.91 78.91 0 0 0-7.85 9.68 40.1 40.1 0 0 0-5.16 10.4c-.38 1.24-.85 2.47-1.21 3.71a8.09 8.09 0 0 1-2.68-.14c-2.27-.66-3.88-1.75-6.52-1.76s-5.79 1-8.46 1.73c-2.2.64-3.87.8-5.28 2.49-.51.61.3 1.31 1 1.07a5.38 5.38 0 0 0 1.63-.66.83.83 0 0 0 .45-.65 36.11 36.11 0 0 1 5.44-1.51c2.84-.71 5.3-1.2 8-.41 1.44.42 2.59 1.24 4.13 1.42a12.67 12.67 0 0 0 1.9-.06c0 .11 0 .22-.06.33-.28 1.84-.19 3.64-.34 5.48a26.48 26.48 0 0 0 0 6.21c.27 1.8 1.72 4.48.74 6.22s-2.82 3.43-4 5.2c-1.28 1.92-2.31 3.93-3.46 5.92-2.23 3.84-5 7.43-6.56 11.52q-.32.81-.61 1.62a5.37 5.37 0 0 0-1.45.72 31 31 0 0 1-5.3 2.65c-1.73.74-3.48 1.45-5.22 2.2-1.94 1.33-3.89 2.67-5.94 3.83a19.07 19.07 0 0 1-3.16 1.53l-.47.14a.68.68 0 0 0 .88.35 16.13 16.13 0 0 0 4.66-2.19 69.17 69.17 0 0 1 7.54-3.39c1.68-.7 3.45-1.26 5.1-2 1-.42 1.65-1.16 2.55-1.64-.33.92-.66 1.85-1 2.77-.74 2-1.69 3.89-1.83 5.93a.6.6 0 0 0 .6.66 58.79 58.79 0 0 1 1.89-6.52 21.81 21.81 0 0 1 1.41-3.33c.14-.27.29-.54.44-.81l.12-.21c.17-.29.36-.57.55-.84a12.17 12.17 0 0 1 1.23-1.47l.12-.31c1.57-3.91 4.3-7.37 6.4-11.07a96.89 96.89 0 0 1 6.84-10.29c.77-1 1.41-1.78 1.28-2.95a12.06 12.06 0 0 0-.98-2.05 15.19 15.19 0 0 1-.66-3.52 35 35 0 0 1 .66-10.18 4.84 4.84 0 0 1 0-.68c0-.15.05-.3.08-.45v-.15c0-.18.1-.37.16-.54a1.43 1.43 0 0 1 .13-.27v-.06a44.73 44.73 0 0 1 3.9-9.85 38.87 38.87 0 0 1 3.16-4.86 59.6 59.6 0 0 1 4-6.59m-22.11 71.1a.94.94 0 0 0-.07.14c-.7 2 1.16 4.49 1.52 6.4a58 58 0 0 1 .64 11 .59.59 0 0 0 .41.59 20.51 20.51 0 0 0 .5-8.39c-.44-3.41-1.09-6.92-3-9.78m50.21-41.4c5.92-4.71 11.6-9.48 16.24-14.87.66-.77-.6-1.71-1.27-.93a102.47 102.47 0 0 1-13 12.27c-3.65 3-8.29 7.7-13.53 9.3a26.09 26.09 0 0 1-4.59 2 .94.94 0 0 0 .32.06c6.52.15 11.39-4.24 15.88-7.83m122.71-9.92a6 6 0 0 1 1.6.46 5.47 5.47 0 0 1 2.9 1.53 95.75 95.75 0 0 0 8.17 5.93 101.53 101.53 0 0 0 8.89 5.11c3.09 1.57 6.38 2.89 9.19 4.8a.82.82 0 0 0 1.08-.12 64 64 0 0 1 20.88 17.31 89.44 89.44 0 0 0 9.86 10c3.61 3.2 7.11 6.45 9.3 10.46a.66.66 0 0 0 .39.32c-.54-2.81-2.64-5.07-4.14-7.52-1.28-1.3-2.66-2.56-4.05-3.8a97.45 97.45 0 0 1-10.66-10.9 63.85 63.85 0 0 0-23.91-18.42.76.76 0 0 0-.68 0c-2.8-1.51-5.82-2.78-8.62-4.3a100 100 0 0 1-10.09-6.29q-2.4-1.71-4.66-3.55a6.61 6.61 0 0 0-3.19-1.82c-1.5-.34-3-1.11-4.62-1.09a11.08 11.08 0 0 0-5.16 1.85.58.58 0 0 0-.33.43l.22-.11c2.7-1 5.17-1.66 7.58-.27m54.37 62.46a.68.68 0 0 0 .3.21 81.81 81.81 0 0 0-5-6.91 1.1 1.1 0 0 1-.22-.89 92.11 92.11 0 0 0-17.89-13.92c-4.45-2.68-9.91-4.53-13.94-7.64-2-1.53-3.64-3.31-5.68-4.79-1.79-1.3-5.37-2.28-6.24-4.14a.73.73 0 0 0-.76-.39c-3-3.77-7.61-6.5-12.63-8.48a122.51 122.51 0 0 0-11.72-3.69c-4-1.13-7.83-2.84-11.85-3.84-3.62-.91-7.67.58-11 2-1.74.74-3.37 1.67-5.14 2.39a32.2 32.2 0 0 1-7.3 1.6c-4 .64-7.42 2.27-11.07 3.83-1.19.51-2.58 1.16-4.05 1.79a1.29 1.29 0 0 1-.43.48c-3.82 2.55-7.39 3-11.7 2.85a.77.77 0 0 0 .32.15c3.28.82 6.37-.12 9.53-1.25 3.91-1.39 7.57-3.11 11.33-4.66 4-1.64 8.12-1.67 12.15-2.87s7.21-3.4 11.13-4.52a11.2 11.2 0 0 1 8 .34c1.83.67 3.68 1.3 5.57 1.87 3.92 1.18 7.91 2.18 11.76 3.44 7 2.27 13.84 5.62 17.13 11.38a.94.94 0 0 0 1.3.21c.5.29 1 .55 1.6.82a30.75 30.75 0 0 1 6.84 5c3.93 3.41 8.92 5.27 13.56 7.89a90.57 90.57 0 0 1 26 21.77m-6.51-31.83a.7.7 0 0 0-.62-.57c-3.19-.61-6-.78-8.62 1.09-2.35 1.69-4.68 3.78-5.64 6.29.37-.32.74-.64 1.12-.95a1.12 1.12 0 0 1 .36-1.18c3.27-3 8.85-6.53 13.4-4.69m-38.61-18.1a10.15 10.15 0 0 1 4.86-1.27c-4.46-1.53-9.49 3.31-12.09 5.77-.68.64.56 1.46 1.24.82l.39-.37a1.29 1.29 0 0 1 .29-1.2 15.61 15.61 0 0 1 5.31-3.75m-28.39 24.68c1.33-.77 2.68-1.53 4-2.24q3.56-1.86 7.25-3.47a1.34 1.34 0 0 1 .21-.16 35.84 35.84 0 0 1 3.52-2q1.72-1 3.4-2.07c-2.39 1.05-5 1.84-7.43 2.88q-4 1.74-7.9 3.76a118.81 118.81 0 0 0-16.05 10.19.66.66 0 0 0-.25.84 43.7 43.7 0 0 1 5.23-4 62.25 62.25 0 0 1 8.05-3.77m-14.73 17a11.93 11.93 0 0 0 4.3 3l.34.12c.64.21 5.58 1.2 5.13 2.05a.62.62 0 0 0 .5.91 3.2 3.2 0 0 0-.52-3 10 10 0 0 0-1-.29 43 43 0 0 1-8-2.8.78.78 0 0 0-.74 0m46-9.67c1.33 1.72 3.16 3 4.22 4.92a15.25 15.25 0 0 1 1.21 3 22.67 22.67 0 0 1 2.62 5.19 7.73 7.73 0 0 1-1.37 8c-1.78 2-4.24 3.68-6.25 5.58-3.48 3.3-7.86 7.47-9.46 11.77a8.6 8.6 0 0 0-.33 1.14c0-.41-.09-.81-.13-1.22a.75.75 0 0 0-.92-.55c-2.36.65-4.12-.36-6.09-1a39.18 39.18 0 0 0-5.12-1.26c-3.65-.74-7.59-1.67-9-4.75 1.58-4.14 2.78-8.1 5.67-11.85.58-.76 1.2-1.49 1.84-2.21a25.54 25.54 0 0 1 6.7-8.51 1 1 0 0 0-.35.2 76.68 76.68 0 0 0-10 10.38c-2.65 3.57-3.81 7.28-5.29 11.18a3.23 3.23 0 0 0-.57-.68 3 3 0 0 0-1.55-.14c-3.57.16-7.5 1.12-11.09 1.7-5.19.84-10.65 3-13.73 7a17.12 17.12 0 0 0-3.43 13.26 40.32 40.32 0 0 1 .58 4.32c.05 1.42-.42 3-.09 4.37.55 2.24 2.78 4.28 4.14 6.13.57.77 2-.28 1.48-1-1.79-2.43-4-4.63-3.8-7.81a23.46 23.46 0 0 0-.4-5.42c-.74-4.72-.2-9.31 3.37-13.65 3.38-4.09 9.65-5.36 14.8-6.16l3.89-.6c.93-.14 3.62-1 4.43-.68 1 .35.86 1.37 2.08 1.45 1.61 2.75 5.17 4 8.73 4.7a47.42 47.42 0 0 1 6.79 1.73 10.41 10.41 0 0 0 5.34 1 126.68 126.68 0 0 0 2.14 13.95c.19.88 1.76.61 1.69-.3-.39-5.78-2.2-12.24 1.83-17.61 3.6-4.79 8.14-8.56 12.51-12.67 7.71-7.22-.62-17-6.07-22.64a.87.87 0 0 0-1-.14m-2.88 58.75a48.88 48.88 0 0 1-12.82-3.55c-.92-.4-2 .81-1.09 1.22a50.46 50.46 0 0 0 9.61 3.08c1.48.31 3 .56 4.51.74 2.15.26 4.78.1 6.31 1.49.69.63 2.06-.34 1.36-1-2-1.8-5.06-1.63-7.87-2m-123.78-25.57c1.72.05 2.14-.23 2.08 1.25a5 5 0 0 0 .64 2.54.63.63 0 0 0 .22.24 13.06 13.06 0 0 1 .5-3c1.26-4.3 4.75-6.56 8-9.16-3.76.11-6.63 3.57-8 7a5 5 0 0 0-2.44-.44 41.63 41.63 0 0 0-12.32 1.77.75.75 0 0 0-.63 1 12.74 12.74 0 0 1 3.52-.15 32.31 32.31 0 0 1 8.43-1m34.53-1.95l.14-.08a22.22 22.22 0 0 1 3.56-2.15c1.16 4.32-1.73 9.14-1.11 13.63a.68.68 0 0 0 .52.53c.35-2 .87-4 1.4-6 .29-1.11.59-2.26 1-3.4a20.5 20.5 0 0 1 .85-2.63c.1-.36.2-.71.31-1.07.63-2 2.16-3.51 3.28-5.34a40.25 40.25 0 0 1 3.43-5.42 34.23 34.23 0 0 1 7.41-7c.52.42 1.67.13 1.51-.61 0-.09 0-.17-.07-.25l.43-.24c4.5-2.33 9.3-4.24 13.93-6.18a.72.72 0 1 0-.57-1.3c-4.76 2-9.7 4-14.33 6.35a13.45 13.45 0 0 0-3-3 21.39 21.39 0 0 1-3.33-2 14.65 14.65 0 0 1-1.21-1c1 2.86 4.78 4.13 6.07 6.72a34.68 34.68 0 0 0-8.14 7.56 29.67 29.67 0 0 0-3.27 5c-1 1.73-2.47 3.25-3.31 5-.06-.23-.12-.46-.2-.69a.82.82 0 0 0-.9-.41c-2.24.24-4.16 2.1-6.07 3.17a50.11 50.11 0 0 1-9.25 4 24.87 24.87 0 0 0 10.5-3.08 1.27 1.27 0 0 1 .48-.16m-20.31 45.32c1-3.41.52-7 .82-10.63a30.14 30.14 0 0 1 .7-5.51 1.11 1.11 0 0 0-.55.57 15 15 0 0 0-.87 6.23 29.72 29.72 0 0 1-1 8.54c-.16.6.37.87.91.8m35.6-1.11c-4.83.26-8.51.41-13 3.09a26.8 26.8 0 0 0-2.92 2 58.32 58.32 0 0 1-1.12-5.91 31.15 31.15 0 0 1 .46-7.41.62.62 0 0 0-.08-.46 18.58 18.58 0 0 0-2.13 9.37 27.13 27.13 0 0 0 .48 3c.4 1.86.92 2.51-.72 4.23a14.52 14.52 0 0 0-3.16 4.3.66.66 0 0 0 .19.87 25 25 0 0 1 8.91-8.32 1.27 1.27 0 0 1 .44-.15 19.54 19.54 0 0 1 5.26-2.44 35.67 35.67 0 0 1 7-.64c1.17-.07 1.56-1.64.39-1.57m-41.84 20.46c-4.87 1.82-11.31 5.5-13.48 10.11-1.66 3.54-.19 7.2 1.49 10.34-2 1.1-3.4 2.81-5 4.56-3.09 3.3-6.64 6.32-10.13 9.41s-6.67 6.15-10.71 8.53c-4.26 2.51-9.62 5.69-14.13 5.36-1.25-.09-1.78 1.76-.55 1.85 3.62.26 7.18-1.4 10.76-3.25a54.58 54.58 0 0 0 11.02-7.23q5.11-4.44 10-8.93c1.43-1.31 2.84-2.62 4.17-4 1.52-1.57 3-3.74 5.05-4.84.12 3 2 5.32 3.63 7.58a58.77 58.77 0 0 0 7.39 8.27.82.82 0 0 0 .56.21 33.43 33.43 0 0 1-7.54-10.32 32.47 32.47 0 0 1-2.91-8.63l-.45-1c-.86-2-2-4.52-1.25-7s3.69-4.72 6-6.29c3-2 8.57-4.78 12.64-4.77 1.46-.26 2.94-.45 4.43-.58-2.86-1.83-7.38-.79-11.19.63m28.47 12.38l-.21.46-.07-.06-.49 1a.74.74 0 0 0-.29.6c-.19.37-.37.75-.57 1.12a22.4 22.4 0 0 1-2.93 5.53 16.2 16.2 0 0 0 1.36-1.15c2-1.88 3.1-4.29 4.37-6.67a1.2 1.2 0 0 1 .54-.54 9.48 9.48 0 0 0 .45-1.17 32.62 32.62 0 0 0 9.84 5.83h.66a.54.54 0 0 0-.31-.64l-.18-.1a25.84 25.84 0 0 1-3.25-1.4 14 14 0 0 1-3.77-3.24c-2.11-1.35-4-3.1-6.2-4.26-1.78-.93-3.59-1.81-5.38-2.71a.8.8 0 0 0 .28 1.17c1.61.88 3.38 1.48 5 2.28.55.53 1.08 1.07 1.59 1.55l.36.33a.85.85 0 0 0-.18.37 8 8 0 0 1-.65 1.68m39.08-35c-.17.13-.33.27-.49.41a54.12 54.12 0 0 1-7.27 9.51l-.18.21c-1.53 2.63-5.1 4.51-7.46 5.63-1.94.93-4.08 1.5-5.84 2.78a7.93 7.93 0 0 0-.7.58c4-1.88 8.7-2.55 12.28-5.15a8.88 8.88 0 0 1 2.89 1.82c1.05 1.13 2.06 2.3 3.09 3.44.65.72 2.16-.39 1.51-1.11-1.12-1.25-2.19-2.55-3.38-3.75a8.55 8.55 0 0 0-2.64-1.63c3.59-3.43 5.76-8.28 8.17-12.09a.55.55 0 0 0 0-.64m115.32-58.59a14.49 14.49 0 0 1-2.49 4.25 11.45 11.45 0 0 1-4.42 3.85c-2.45 1.55-5.64 1.89-8.59 2.63.44-.55.88-1.09 1.33-1.62a.58.58 0 0 0-.29-.95 23.49 23.49 0 0 1-5.91 6.06l-.56.58a20.39 20.39 0 0 1-1.57 1.42 3.23 3.23 0 0 0-1.36.73.66.66 0 0 0-.25.5c-1.63 1.15-3.39 2.2-5.14 3.22a67.07 67.07 0 0 1-9 4.53 19 19 0 0 0-4.8 2.37 3.31 3.31 0 0 0-.71-.24c-.73-.18-4.09-.8-4.32-.55.66-.74-.64-1.5-1.3-.76-.85.94-.2 1.61.85 2 1.23.46 3.5.22 4.35 1a.65.65 0 0 0 .31.38c.56 1 .51 2.78.82 3.77a18.69 18.69 0 0 0 3.58 6.44c2.12 2.53 4.61 4.53 6.12 7.33.43.78 2 .12 1.53-.65-2.44-4.42-7.14-7.4-9.11-12.07a16.77 16.77 0 0 1-1.1-3.89c-.08-.49-.06-1-.19-1.52 2-1.76 5.24-2.5 7.64-3.65 2.76-1.31 5.37-2.81 7.92-4.35a46.92 46.92 0 0 0 4.84-3.25c1.14-.23 2.61.07 3.65-.12 1.2-.22 2.18-.88 3.33-1.16a8.65 8.65 0 0 1 3.52-.05c2.66-.09 5.33.54 7.93-.07a.61.61 0 0 0-.66-.49 47.28 47.28 0 0 1-6.55-.67 9.78 9.78 0 0 0-4.08-.13c-.83.2-1.54.57-2.34.84a9.85 9.85 0 0 1-3.15.44l.23-.21a43.61 43.61 0 0 0 3.13-3.48 1 1 0 0 0 .46 0c2.92-1 6-1.27 8.71-2.39h.07c1.55 0 2.68 1 4.1 1.43a18 18 0 0 0 3.57.52c1.89.14 2.29.5 3.17 1.77.7 1 2.69 1.78 2.58 3.07a.67.67 0 0 0 .7.67 10.25 10.25 0 0 0-1.34-3.54 9.36 9.36 0 0 0-3.27-3.21c-1.24-.2-2.7-.09-3.85-.29a28 28 0 0 1-3.87-1.41 9.81 9.81 0 0 0 .83-.59 16 16 0 0 0 5.24-7.69.6.6 0 0 0-.27-.69m-99.09 84.78a47.74 47.74 0 0 1-11.54-2.42 7.34 7.34 0 0 0-3.62-1.81c-1-.17-1.76.94-1 1.43a19.3 19.3 0 0 0 3.05 1.59c3.33 4.56-8.19 17.48-13 21.83-2.75.21-6.16 2.05-8.89 2.77-3.68 1-7.39 1.56-11.09 2.57-3.49 1-6.94 2.28-10.45 3.25-4.11 1.13-8.24 1.86-12.38 2.61-1.26.23-1.17 1.87.09 1.64a127.23 127.23 0 0 0 17.1-4.08c5.49-1.79 10.84-2.86 16.29-4.26 1.16-.3 2.31-.62 3.46-1 1-.32 3.79-1.78 4.65-1.62 1.89.37 1.39 4.87 1.63 6.36.73 4.54 1.84 9 3 13.39.24 1 2.14.45 1.89-.51-.92-3.63-1.84-7.25-2.55-10.94-.57-3-.39-6.53-1.24-9.4a55.18 55.18 0 0 0 11.74-14.46c1-1.88 2.63-5.11 2.48-7.19a59.56 59.56 0 0 0 9.66 1.76 43 43 0 0 0 9.25-.18.58.58 0 0 0 0 .46c2.56 4.83 7.54 7.05 13.54 8.16 3.11.57 5.89 1.72 9.27 1.53 1.49-.08 3-.44 4.5-.38a9.61 9.61 0 0 1 1.89.3h.37a30.17 30.17 0 0 0 4.23-.48.77.77 0 0 0-.29-.09c-2.54-.31-4.51-1.36-7.24-1.17a27.68 27.68 0 0 1-9.29-.54c-2.91-.74-6-1-8.68-2.18a13.87 13.87 0 0 1-6.52-5.76c2.25-.23 4.5-.44 6.72-.46a1 1 0 0 0 1-1 22.7 22.7 0 0 1-2.38.46c-2 .26-3.85-.21-5.82-.11a1.11 1.11 0 0 1-.77-.23 41.81 41.81 0 0 1-9 .21m120.2-135.43a.93.93 0 0 0-.26-.05l-.52-.39c-1.16-.84-2.48-1.51-3.64-2.34s-2-2-3.13-3a8.27 8.27 0 0 0-4.12-1.8c1.29-.87 1.86-2.68 2.15-3.86a20.86 20.86 0 0 1 1.58-4.28 10.07 10.07 0 0 0 .93-3.12c0-.22 0-.45.06-.68-.1-.7-.25-1.4-.39-2.09a48.57 48.57 0 0 0-1.61-5.4.42.42 0 0 0-.2.47 25.25 25.25 0 0 1 .78 6.84c-.17 2.23-1.49 3.89-2.17 6-.33 1-.35 2.07-.76 3.06-.57 1.37-1.05 2.12-3 2.28a19.35 19.35 0 0 0-4 1c-1.06.17-2.07.38-3 .59l-.17.06a10.75 10.75 0 0 0-1.54-5.42l-1.83-3.48a31 31 0 0 1-4.29-6.79.52.52 0 0 0-.46.75c1.68 3.2 3.4 6.4 5.07 9.61 1.53 2.93 2.05 5.32.76 8.22-1.44 3.25-4.25 6.37-4.66 9.95a12.36 12.36 0 0 0-2.42-5.35 13.73 13.73 0 0 0-6.46-3.88c-1.72-.56-2.44-1.87-3.88-2.7a32.62 32.62 0 0 0-4.07-1.66 77.71 77.71 0 0 1-10.77-5.28 40.27 40.27 0 0 1-7.91-6.68c-2.36-2.38-5.36-4.35-7.41-6.93-1.76-2.21-3-4.7-5.74-6.28-1.11-.64-2.35-1.07-3.5-1.63a12.57 12.57 0 0 1-4.23-3.48c-2.05-2.47-3.86-4.79-7-6.5a21.45 21.45 0 0 0-9.3-2.52.68.68 0 0 0-.52.16c3.17.08 6.25.73 8.66 3a1.34 1.34 0 0 1 .22.28 15.75 15.75 0 0 1 3.87 2.85c2.3 2.33 3.71 5.14 6.83 6.86 1.71.94 3.7 1.48 5.21 2.66a18.51 18.51 0 0 1 3.44 4.13c2.23 3.09 5.51 5.3 8.24 8.06a41.68 41.68 0 0 0 8.53 7.12 81.4 81.4 0 0 0 11.19 5.41c.76.3 1.55.55 2.29.87a10.49 10.49 0 0 1 2.83 2.1c1.18 1 2.68 1.19 4.11 1.77 4.79 1.93 5.72 5.62 6.71 9.45a.87.87 0 0 0 1.14.46c.58 2.78 2.86 5.14 4.18 7.72a47.21 47.21 0 0 0 4.42 7.65c4 5.16 9.43 9.57 12.06 15.36.34.75 1.71.25 1.38-.5-2.44-5.35-7.21-9.55-11.13-14.21a41.67 41.67 0 0 1-5.18-8.44c-1.54-3-4.54-5.92-4.38-9.31.21-4.54 4.44-8 5.36-12.33 0-.1 0-.2.05-.3a.81.81 0 0 0 .67.27 15.32 15.32 0 0 0 3.7-.66 22.68 22.68 0 0 1 4.93-.13c3 .28 4.08 2.07 5.95 3.73 1.38 1.22 3.18 2.05 4.69 3.15 1.83 1.32 3.48 2.83 5.15 4.31a18.1 18.1 0 0 0 2.54.76.48.48 0 0 0-.2-.38l-4-3.51c4.08.55 8-1 12.15-.26a.64.64 0 0 0 .64-.19 19.19 19.19 0 0 0-6.53-.86c-2.7.31-5.39.66-8.1-.33m-42.84-7.11c2-.49 2.44-2.56 3.19-3.93a28.76 28.76 0 0 0 2.8-5.76 14.53 14.53 0 0 0 .45-4.37c-.52-3.33-1.25-6.64-1.08-10a.59.59 0 0 0-.74.44c-.5 3.77.59 7.62.3 11.43a12.83 12.83 0 0 1-1.7 5.2l-1.57 2.87c-.45.83-1 2.7-2.23 3-.91.23-.32 1.37.59 1.14m-66.6-71.1c4.48-.08 8.83-.35 13.31-.13a109.11 109.11 0 0 1 13.89 1.32c1.4.25 3.1.28 4.6.6a1.23 1.23 0 0 1 1.16 0l1.84 1.33a11 11 0 0 0 2.38.82c-1.86-1.74-3.27-3.11-6.35-3.42-4.3-.43-8.51-1.28-12.86-1.55a132 132 0 0 0-13.44-.36c-1.32.05-2.65.12-4 .16l-1.07.16a50 50 0 0 1-7.51-.13l-.49.25a28.24 28.24 0 0 0 8.51 1" fill="#fa004f"/></svg>