<svg viewBox="0 0 269 234" xmlns="http://www.w3.org/2000/svg"><path d="M246.95 170.503c2.544-5.348 3.527-10.965 6.181-16.18 2.79-5.48 5.68-10.788 5.518-16.737-.047-1.738-.324-3.45-.79-5.124l-.12-.051c-1.009-.531-1.246-1.867-.882-2.697l.027-.042c-.683-1.616-1.548-3.184-2.597-4.682.591-.806 1.015-1.685 1.937-2.337 1.439-1.017 2.749-1.688 3.777-3.024.894-1.161 1.532-2.44 2.497-3.555.942-1.089 2.184-2.015 2.737-3.298.621-1.44.428-3.141.399-4.659-.017-.871-.051-1.742-.094-2.612 2.903-6.733 3.872-14.006 2.64-21.251-1.393-8.248-5.556-16.275-10.844-23.694-1.608-2.273-3.312-4.524-5.119-6.733-.078-.633-.506-1.06-1.123-1.354-3.594-4.284-7.586-8.394-12.035-12.166-3.165-2.7-6.602-5.157-10.237-7.419.194-.298.051-.755-.514-.832-.427-.058-.846-.146-1.261-.249-12.521-7.549-27.303-12.945-41.379-17.899-7.358-2.627-14.921-4.916-22.665-6.364-.059-.156-.187-.283-.405-.322-2.714-.496-5.31-1.099-7.936-1.981l-.163-.03c-2.202-.659-4.418-1.262-6.651-1.8-5.975-1.438-12.049-2.436-18.16-2.969-12.49-1.09-25.098-.17-37.292 2.859-.312.078-.441.327-.436.583-12.599 3.536-24.901 8.267-36.366 14.605-9.729 5.462-19.065 11.342-30.091 15.761-.156-.274-.483-.451-.831-.258l-10.807 6.02c-2.851 1.001-5.645 2.778-8.411 4.911 1.067 3.968 1.872 8.053 2.516 12.139.435 3.486.435 6.536 0 10.022-3.047 22.223-10.011 43.575-7.4 66.235.435 2.615 2.176 5.229 3.917 6.536 3.047 2.615 7.4 3.922 10.882 2.615 13.058-5.229 12.188-22.659 13.494-35.296 1.741-12.201 9.576-19.173 21.328-16.994 3.047.436 6.094 2.179 7.4 5.229 3.047 7.408.871 15.251 1.306 22.659 0 13.944-9.576 38.346 8.27 43.575 4.353.872 8.27-2.179 10.882-6.972 7.835-16.559.871-39.218 19.587-49.676 1.306-.872 3.047-.436 4.353.436 19.152 19.173 9.576 46.626 10.882 70.592.435 9.587 4.788 29.631 17.411 22.223 6.964-4.358 5.223-15.251 11.317-20.916 6.094-6.536 13.058 1.307 17.846 6.101 1.306 1.307 2.176 3.05 2.612 5.229.871 14.38-2.612 28.324 0 43.14.435 1.743 3.047 3.05 4.788 1.307 16.54-16.123 23.07-47.933 52.233-42.704 3.298.734 6.287 1.471 9.227 2.984 2.71-2.732 5.317-5.496 7.813-8.289 4.155-4.631 8.339-9.362 10.827-14.595" fill="#ff6697"/></svg>