<svg width="359" height="294" viewBox="0 0 359 294" xmlns="http://www.w3.org/2000/svg"><path d="M355.777 106.086c2.92-6.77 3.895-14.083 2.655-21.368-1.401-8.293-5.588-16.365-10.907-23.825-1.617-2.285-3.331-4.549-5.148-6.77-.078-.636-.509-1.065-1.13-1.361-3.615-4.307-7.63-8.441-12.105-12.232-3.184-2.715-6.641-5.186-10.296-7.46.195-.299.051-.759-.517-.836-.429-.059-.851-.146-1.268-.251-12.594-7.591-27.461-13.017-41.619-17.998-7.401-2.642-15.008-4.943-22.796-6.4-.059-.157-.188-.284-.407-.324-2.73-.499-5.341-1.105-7.982-1.991l-.164-.031c-2.214-.663-4.445-1.269-6.69-1.809-6.009-1.446-12.118-2.45-18.265-2.986-12.562-1.096-25.243-.171-37.508 2.875-.313.078-.444.329-.439.586-12.672 3.556-25.046 8.312-36.577 14.685-9.786 5.492-19.175 11.404-30.266 15.848-.156-.276-.486-.454-.836-.259l-10.869 6.053c-3.621 1.272-7.151 3.784-10.649 6.695-.201-.014-.407.071-.542.304l-.211.329c-.882.748-1.762 1.517-2.641 2.295-.856.557-1.735 1.063-2.447 1.559-1.808 1.263-3.615 2.528-5.424 3.79-2.137 1.491-4.287 2.966-6.528 4.27-8.941 4.043-17.364 9.059-24.753 15.494-8.51 7.459-15.513 16.29-21.335 25.667-6.142 9.912-11.04 20.428-15.271 31.175-5.068 12.863-9.685 26.213-11.815 39.594-4.346 27.194 5.887 50.118 16.037 72.524 2.671 5.795 5.332 11.601 7.711 17.564 1.668 4.153 3.034 8.526 5.12 12.454-.28.474-.266 1.142.326 1.51.572.357 1.044.869 1.466 1.454l.077.116.074.1c.933 1.368 1.637 3.076 2.686 4.225 1.559 1.707 3.507 3.022 5.539 4.038 4.503 2.249 9.742 3.694 14.682 4.38 5.094.708 9.754-.514 13.411-4.367.675-.712 1.539-1.706 2.291-2.816 5.834 11.25 21.214 12.697 36.523 9.753 4.235-.808 8.482-1.907 12.694-3.207 5.281-1.623 10.68-4.094 15.904-4.81 4.25-.58 8.253-.156 12.304-.029l.85.17c.813.158 1.582-.011 2.388-.163 4.09-.103 8.254-.538 12.435-1.273 18.876-3.287 37.542-12.468 51.362-25.137.138.017.28-.015.416-.096-.018 1.019.31 1.975 1.34 2.494 1.379.694 3.087-.091 4.256-1.075 29.018-12.688 55.136-28.524 76.88-46.298 10.559-8.519 20.076-17.499 28.388-26.8 4.179-4.657 8.387-9.414 10.89-14.675 2.559-5.377 3.548-11.025 6.217-16.269 2.806-5.511 5.713-10.848 5.55-16.829-.047-1.747-.326-3.469-.794-5.152l-.12-.05c-1.015-.534-1.254-1.877-.887-2.712l.028-.042c-.686-1.625-1.557-3.201-2.612-4.708.595-.811 1.021-1.694 1.949-2.35 1.447-1.022 2.764-1.697 3.799-3.04.9-1.168 1.54-2.454 2.511-3.575.948-1.095 2.196-2.026 2.754-3.316.626-1.448.431-3.158.401-4.685-.017-.876-.052-1.752-.094-2.627" fill="#ff6697"/></svg>