<svg xmlns="http://www.w3.org/2000/svg" viewBox="0 0 931.74 819.8"><path d="M428.42 478.91c-3.2 3.44-6.52 6.67-11.22 7.81s-9.61.64-14.34 1.4a.72.72 0 0 0-.63.87 66.63 66.63 0 0 1-6.51-1.44 16.93 16.93 0 0 1-10.22-6.09c-4.34-5-8-10.39-12.72-15 5.49 1.45 10.21 4.92 15.73 6.37 6.24 1.64 12.7 1.4 19 .45 7-1 13.92-2.4 20.87-3.62l10.08-1.77a24.23 24.23 0 0 0 4.84-1.1c-2 1.47-4.09 2.81-6.14 4.24a54.23 54.23 0 0 0-8.75 7.91m-47.27-14.75a17.73 17.73 0 0 0 6.42 1.25 1.17 1.17 0 0 1 .27 0c.46 0 .91.06 1.36.07.23-.07.46-.14.7-.19 3.38-1.64 6.44-2.55 10.18-.91a20.41 20.41 0 0 0 8.06 1.63.83.83 0 0 0 .52-.15 81.39 81.39 0 0 0 17.52 2.36c-6.37 1.12-12.73 2.38-19.13 3.31s-13.25 1.13-19.62-.89c-5.22-1.66-9.72-5-15.1-6.15 2.92-1 5.74-1.47 8.82-.32m57.7 7.83l3.25-2.19a1 1 0 0 0 .64.34c.29-.25.58-.49.89-.72a3.56 3.56 0 0 1 2-1.28 18.4 18.4 0 0 1 2.79-1.19q.71-.33 1.43-.63a72.75 72.75 0 0 1-8.18-.19 1.42 1.42 0 0 1-1.37-1.11 56.76 56.76 0 0 1-12.52 1.33 79.15 79.15 0 0 1-19.08-2.39.83.83 0 0 0-.78.18 17.06 17.06 0 0 1-6.93-1.38 11.54 11.54 0 0 0-3.73-1.25c-2.82-.3-5.48.78-8 2h-.09a15.79 15.79 0 0 1-5.58-.39 33.43 33.43 0 0 0-4.6-1.5c-2.88-.41-5.71.49-8.36 1.51a1 1 0 0 0-.56 1.17.86.86 0 0 0-.5 1.47 73.64 73.64 0 0 1 9.49 10.44c2.68 3.46 5.38 7.55 8.93 10.18 3.34 2.48 7.77 2.89 11.74 3.66 2.95.57 5.89 1.27 8.42-.75 3.53-.17 7.09-.19 10.49-1.21 3.92-1.17 7-3.76 9.77-6.67 3.34-3.48 6.42-6.78 10.44-9.51m-46.4-46a.92.92 0 0 0-.75.57 14.44 14.44 0 0 0 3.7-.3 16.6 16.6 0 0 0 4.84-2.37 1.53 1.53 0 0 1 .38-.18c-.19-1.1-1.66-1.59-2.77-1.79a19.93 19.93 0 0 0-9.43.74 21.81 21.81 0 0 0-6.51 4.09c-1.17 1.32-2.39 2.6-3.53 3.94l.62-.48c1.1-.82 2.12-1.76 3.23-2.57l.37-.24.55-.36a22.53 22.53 0 0 1 8.48-3.25 20 20 0 0 1 5.35-.19c4.32.49-3.86 2.31-4.52 2.39m17.48-87.87a5.47 5.47 0 0 1 3.52-1.39 3.15 3.15 0 0 1 .79.12.91.91 0 0 0 .09.14 10.36 10.36 0 0 0 2.54 2.31.83.83 0 0 0 .18.12 26.59 26.59 0 0 0 7.53 3 27.45 27.45 0 0 0 13.17.24c5.12-1.21 9.92-3.83 14.84-5.62 4.07-1.48 7.87-3.18 10.45-6.81v-.08a9.07 9.07 0 0 1-4.68 2.2c-2.48 1.71-5.46 2.65-8.35 3.71-3.63 1.33-7.08 3.14-10.76 4.32a25.16 25.16 0 0 1-12.31.76 26.64 26.64 0 0 1-8.82-3c-1-1.54-2.2-3-4.17-3.18a7.32 7.32 0 0 0-5.32 1.94c-1.13 1-2.42 2.55-1.29 4 .93 1.19 3.06 1.47 4.79 1.67a2.67 2.67 0 0 1-2.17-2.29 1.11 1.11 0 0 1-.87-.58c-.38-.7.18-1 .79-1.54m51 3.62a.84.84 0 0 0-.4-.22q.78-.72 1.48-1.51c0 1.34-.11 2.72-1.07 1.72m-2.46 2.68a8 8 0 0 1-.55-.76q.66-.48 1.29-1-.38.87-.75 1.75m-3.32 1.6q-.13 1.12-.44 0c0-.09-.09-.17-.14-.26l1-.55a2.24 2.24 0 0 1-.39.79m-4.24 1.54l.73-.32a15.76 15.76 0 0 0 .17 1.85 8 8 0 0 0-.9-1.53m-3.44 2.38a3.84 3.84 0 0 0-1.14-.72l1.4-.45c-.11.39-.19.79-.26 1.17m-3.25 1.92a6.42 6.42 0 0 1-.9-1.55.79.79 0 0 0-.19-.28q.86-.18 1.72-.4a4.39 4.39 0 0 0-.62 2.23m-2.55-1.1c0 .59-.09 1.16-.16 1.73l-.55-2.08.91-.15a.89.89 0 0 0-.21.5m-3.29 1l-.52-1 1-.06a10.86 10.86 0 0 0-.52 1.09m-4.68 2.78a27.11 27.11 0 0 1-.16-3.88c.56.05 1.13.08 1.69.1-.57 1.24-1.09 2.49-1.54 3.78m-6.15-3.23c.11-.58.23-1.15.4-1.73l.66.19a6 6 0 0 0-1.06 1.54m-3.25 1.08a30 30 0 0 1 .6-3.85c.42.17.85.32 1.28.47a23.2 23.2 0 0 1-1.87 3.38m-2.69-3.38c.08-.62.14-1.25.19-1.88l1.13.51a8.15 8.15 0 0 0-1.32 1.37m42.65-13.38c.24-1.17.4-2.36.61-3.54a.82.82 0 0 0-.57.59c-1.5 5.13-5.81 9-10.69 11.62a.89.89 0 0 0-1.33.22 3 3 0 0 0-.32.63 41.94 41.94 0 0 1-7.05 2.62c-9.3 2.53-17.33.27-25.74-3.85-1-.5-1.92 1-.9 1.53l.4.2c-.41.25-.81.52-1.2.8a1.6 1.6 0 0 1-.06.16 20.45 20.45 0 0 1-2.42 3.49 7.7 7.7 0 0 1-.33 1.68l-.38 1c.51-.6 1-1.21 1.41-1.84a2.69 2.69 0 0 0 0 .68.88.88 0 0 0 .62.62c1.26.35 2.35-.63 3.27-1.88a29.27 29.27 0 0 1-1.46 5.12.89.89 0 0 0 1.62.68 47.77 47.77 0 0 1 3-5.72 32.29 32.29 0 0 0-.33 3.79.9.9 0 0 0 1.34.77 4.64 4.64 0 0 0 1.74-1.27v1.36a.9.9 0 0 0 1.52.63 14.6 14.6 0 0 0 1.78-3.21l-.55 4.19c-.12.94 1.22 1.1 1.66.45a25.06 25.06 0 0 0 1.86-4.41c0 2 .32 4.07 2 4.7a.9.9 0 0 0 1.09-.62 38.54 38.54 0 0 1 1.74-4.74l1.27 2.51a.9.9 0 0 0 1.62-.21 10.65 10.65 0 0 1 .35-1.34l.91 3.46a.9.9 0 0 0 1.71 0 15.54 15.54 0 0 0 .75-3.11 8.61 8.61 0 0 0 1.33 1.12.89.89 0 0 0 1.3-.53c0-.13.22-1.94.36-2.76a6.28 6.28 0 0 0 1.24 1.09.9.9 0 0 0 1.48-.39 11.6 11.6 0 0 0 .68-2.63v-.54a3.13 3.13 0 0 0 .31.83 7 7 0 0 0 2.75 3.05.9.9 0 0 0 1.34-.77c-.09-1-.55-3-.56-4.56.57.77 1.29 1.38 2.16 1.12s1.41-1.55 1.71-2.76a9.84 9.84 0 0 0 1 1 .9.9 0 0 0 1.48-.39c.3-.78.63-1.56 1-2.33.63.59 1.35 1 2.19.31a3 3 0 0 0 .88-1.79v-3.25a5.52 5.52 0 0 1 0-.88v-.05a1 1 0 0 0-.07-.26l.14-.22c.1-.7.28-1.39.43-2.11m-136.29 15.32a.89.89 0 0 0 1.74.24l.54-2.16a1 1 0 0 0 1.24.63v.13c.08.92 1.56 1.29 1.75.24l.15-.83a2.3 2.3 0 0 0 1 1.11 1 1 0 0 0 1.19-.26.85.85 0 0 0 1.54-.27l.22-1.28a10.07 10.07 0 0 0 1.44 2.13.86.86 0 0 0 1.19 0 .88.88 0 0 0 1.51-.6v-.81a4.4 4.4 0 0 0 .49.61.9.9 0 0 0 1.52-.63c.06-.47.1-.94.13-1.4a5.35 5.35 0 0 0 1.5 1.51.9.9 0 0 0 1.34-.77c0-.37 0-.74.05-1.1a.82.82 0 0 0 .7-.43l.34-.69a2.21 2.21 0 0 0 1.23 1.08.89.89 0 0 0 .86-.23 2.38 2.38 0 0 0 .68-1.26 14.67 14.67 0 0 1 .76 2c.37 1.07 2.09.61 1.71-.47-.74-2.11-1-3.07-2.61-4.28a.89.89 0 0 0-1.3.53c-.06.37-.12 2.79-.15 1.65a10.87 10.87 0 0 0-.2-2.05.9.9 0 0 0-1.71 0c-.1.35-.21.68-.34 1v-.12q0-.76-.13-1.52a.89.89 0 0 0-1.78 0 8.91 8.91 0 0 0 .14 1.76c0 .65.05 1.29 0 1.93-.59-1-.91-2.31-1.41-3.36s-1.75-.22-1.62.68c.07.49.11 1 .14 1.46-.08-.37-.17-.73-.26-1a2.53 2.53 0 0 0-2.92.71 21.84 21.84 0 0 0 .33 2.12v.69a16.83 16.83 0 0 1-1-2.73.9.9 0 0 0-1.71 0v-.47a.89.89 0 0 0-1.76-.19c0-.35 0-.64-.07-.79a.89.89 0 0 0-1.71 0l-.09.51a.94.94 0 0 0-1-.15v-.05a.92.92 0 0 0-1.59-.57c0-.3.1-.6.15-.9a.89.89 0 0 0-1.71-.47l-.3.76a1 1 0 0 0-.61-.27l.25-.83a.89.89 0 0 0-1.48-.86l-.17.22a.91.91 0 0 0-.51-.32.8.8 0 0 0-1.36-.22l-2.89 3.21a.86.86 0 0 0-.23.66l-.21.26a.89.89 0 0 0 1.26 1.26l.21-.2a1 1 0 0 0 .45.37.91.91 0 0 0 1.57.57l-.49 1.31a.89.89 0 0 0 1.71.47v-.07a1 1 0 0 0 1.51-.1c.22-.3.42-.6.62-.91a31.25 31.25 0 0 0 .16 3.81m-44.32-89.23c-2.83 1.46-5.45 3.12-7.18 5.87-2 3.12-3.12 7-4.13 10.56-2.16 7.57-1.56 14.83 4.63 20.25s14.31 8.77 21.74 11.77c1.06.43 1.52-1.29.47-1.71-7.13-2.88-15.11-6.19-21-11.32-7.09-6.2-5.68-14.54-2.85-22.56 1.36-3.85 2.77-7.35 6.31-9.71a75.77 75.77 0 0 1 11.08-5.54 182 182 0 0 1 22.62-8.38 116.12 116.12 0 0 1 23.91-4.7c3.89-.31 7.77-.55 11.65-.84 1.23-.55 2.79-1.31 4.46-2.08h-.43l-.83.07c4.11-1.5 8.14-3.23 12.07-5.13a255.14 255.14 0 0 0 26.47-15.26c17.86-11.44 35.6-22.7 54.88-31.68 11.36-5.29 23.21-10.41 35.95-10.59a.89.89 0 0 0 0-1.78c-9.82.13-19.15 3.14-28.12 6.93-9.44 4-18.67 8.56-27.66 13.47-17.54 9.58-33.67 21.41-51 31.33-4.63 2.65-9.35 5.14-14.21 7.36q-4.12 1.88-8.37 3.47c-2 .75-5.49 2.51-7.72 1.45-.74.14-1.48.27-2.23.35h-.08a.94.94 0 0 0 .15.22 4.78 4.78 0 0 0 .55.51 140 140 0 0 0-14.64 1.45 145.64 145.64 0 0 0-24 6.51 177.6 177.6 0 0 0-22.46 9.62m-14.34-18a.92.92 0 0 0 .24.23 41.26 41.26 0 0 0-7.11 8.22c-9.35 14.62-.26 34 10.65 45.17a.89.89 0 0 0 1.26-1.26 50.29 50.29 0 0 1-12.23-20.29c-1.35-4.34-2.27-9-1.68-13.52a24.67 24.67 0 0 1 5.77-12.23c5.19-6.33 12.24-11 18.9-15.63 7-4.88 14.29-9.47 21.66-13.84a.89.89 0 0 0-.9-1.53c-8.65 5.13-17.13 10.56-25.32 16.41-3.28 2.34-6.62 4.73-9.71 7.4-4.78-6.79-9.88-14.1-10.52-22.65-.65-8.78 4.75-15.83 9.89-22.38a133.64 133.64 0 0 1 34.38-30.78.89.89 0 0 0-.9-1.53 135.37 135.37 0 0 0-36.68 33.53c-5 6.65-9.34 13.47-8.36 22.13 1 8.51 5.87 15.72 10.67 22.54m348.53 68.2c1.32 1.11 2.54 1.84 3.42 3.38a17.39 17.39 0 0 1 1.65 4.82 25.58 25.58 0 0 1 .64 9.42c-.53 3.48-2.43 5.81-4.33 8.62-1.19 1.76-4 7.43-.21 8.35 1.81.45 2.94-1.69 3.87-2.83a86.09 86.09 0 0 0 5.82-7.25 7.83 7.83 0 0 0 1.24-3c.26-1.5-.23-2.68 1-4.06 1.9-2.14 5.53-2.75 8.11-3.62a15.46 15.46 0 0 0 10-8.84c1.93-4.16 3.84-10 1.72-14.46-1.83-3.83-6.12-5.41-9.9-6.59s-7.3-2.28-11-3.33c-2.78-.8-4.09.25-6.68 1.31-5.16 2.12-4.85 6.74-3.18 11.36a1.65 1.65 0 0 1-.07-.36c-.14-2.15-.23-4.5.83-6.29a4.41 4.41 0 0 1 .38-.93c.94-1.7 3.51-2.73 5.39-3.3 2.64-.8 5.87.83 8.41 1.6 2.32.7 4.66 1.35 6.95 2.14 5.18 1.78 8.58 4.9 7.73 10.78-.66 4.55-2.67 10.5-6.65 13.19-3.12 2.11-7.05 2.5-10.4 4.14a9.39 9.39 0 0 0-3.52 2.59 3.62 3.62 0 0 0-.49 1l-.17.68c-.16.86-.12 1.76-.3 2.68-.51 2.6-2.71 4.65-4.34 6.64l-1.36 1.67c-.57 1-1.06 2.22-2 2.77a1.5 1.5 0 0 1-2.12-1.81 1.41 1.41 0 0 1 1.13-1.49 8.72 8.72 0 0 1 .74-1.25 8.31 8.31 0 0 1 .64-1.07 24 24 0 0 0 3.07-4.32c.31-.63.59-1.31.86-2l.15-.47a23.38 23.38 0 0 0 0-10.85 1.48 1.48 0 0 1-1.18-1.37c-.13-1.81-1.3-3.36-2-5a1.12 1.12 0 0 1 0-.73c-2.27-2-4.77-3.82-6.33-6.37 0 2 .95 3.19 2.44 4.45m-134.62 321.58c-17.79-3.54-35.39-8.44-50.91-17.79a220.37 220.37 0 0 1-29.47-21.18 104.46 104.46 0 0 1-22.36-26.82c-4.24-7.23-8-14.75-12.26-22a1.49 1.49 0 0 1-.18-.19c-1.87-2.44-3.43-5.1-5.29-7.54a30.19 30.19 0 0 0-3.93-4 .68.68 0 0 0 0 .85c7.28 9.5 12.45 20.28 18.3 30.66s12.63 19.56 21.38 27.56a216.34 216.34 0 0 0 28.47 21.38 123 123 0 0 0 33.47 15.3 373.13 373.13 0 0 0 38.02 8.32l-.89-.27c-4.8-1.46-9.77-2.22-14.35-4.28m327.75 45.45c-1.33-3.51-3.94-6.38-5.75-9.62a1.11 1.11 0 0 0-.14-.31l-.17-.26a16.16 16.16 0 0 1-.94-2.16 14.34 14.34 0 0 1-1.58-1.76l-.46-.7c-.41-.63-.82-1.28-1.29-1.87a13.72 13.72 0 0 1-1.71-1.82 1 1 0 0 0-.48-.47c-3.09-5-7.56-9.09-11.58-13.28-5.71-6-11.09-12.66-18.87-15.93-7.4-3.11-14.86-4.38-20.42-10.68-2-2.3-4-4.72-6.91-6-2.4-1-5-1.47-7.39-2.58-2.16-1-4.24-2.23-6.31-3.4a309.61 309.61 0 0 1-27-17.2c4.81 5.47 11 9.35 17 13.39q5.45 3.34 11 6.44a49.49 49.49 0 0 0 7.1 3.47c3 1.07 5.68 1.5 8.08 3.71 3.17 2.91 5.4 6.41 9.2 8.62s8.21 3.37 12.38 4.87a34.79 34.79 0 0 1 13.42 8.82c3.91 4 7.74 8 11.59 12.06a56.46 56.46 0 0 1 7.13 8.57 1.08 1.08 0 0 0 .12.7 3.81 3.81 0 0 0 .93 1.11q.55 1 1 2.13a7.65 7.65 0 0 1 1.81 2.18 1.14 1.14 0 0 0 .3 0h.13l2 3.11a1.19 1.19 0 0 0 .18.21c1.37 2.29 3.1 4.37 4.38 6.75 2.34 4.36 3 9.41 3.33 14.27.81 10.59 1 20.94-.8 31.45-1.75 10.19-4.52 20.19-6 30.45-.68 4.84-.84 9.72-1.41 14.57-.65 5.53-2.34 10.81-4 16.11l-11 35a1.1 1.1 0 0 0 2.12.58l9.93-31.67a145.51 145.51 0 0 0 4.45-15.54c1-5.11 1.09-10.32 1.64-15.48 1.14-10.61 4-20.93 6-31.4a112 112 0 0 0 1.87-15 145.12 145.12 0 0 0-.45-16.43c-.33-5.05-.67-10.26-2.48-15m-348.13-116.36h-1.61a107 107 0 0 0-9.78 15.38.89.89 0 0 0 1.53.9 106 106 0 0 1 10.24-16 2.84 2.84 0 0 1-.39-.25m4.85 2.2c-4.78 5.67-9.34 11.63-11.63 18.7l.39.25c.39.25.76.53 1.14.8 2.19-7.15 6.8-13.12 11.61-18.8-.51-.3-1-.62-1.51-1m7.42 4c-3.67 6-7.11 12.23-8.9 19.14a.87.87 0 0 0 0 .45l.24.09 1.14.42a.81.81 0 0 0 .34-.49c1.77-6.81 5.19-12.9 8.81-18.86l-1.62-.75m7.85 3.31a91.71 91.71 0 0 1-5.3 9.46c-1.92 3-3.73 5.78-4.1 9.4l.84.39.53.25a.9.9 0 0 0 .41-.68c.39-3.94 3-7.06 5-10.33a87.2 87.2 0 0 0 4.27-7.91l-1.66-.62m5.41 3.23a161.79 161.79 0 0 0-7.73 18.77l1.63.67v-.08a158.27 158.27 0 0 1 7.61-18.39c.5-1-1-1.92-1.53-.9m9.1.76l-1.72-.34a68.94 68.94 0 0 1-3.95 12.33c-1.12 2.81-3.26 6.36-3.06 9.53l1.73.75a.91.91 0 0 0 .06-.54c-.33-1.83 1-4.2 1.64-5.88s1.42-3.55 2.11-5.33a60.35 60.35 0 0 0 3.18-10.4 1 1 0 0 0 0-.14m6.21 1.34l-.06.09c-4.1 7-5.37 15.17-7.07 23q.85.22 1.73.4c1.66-7.63 2.88-15.66 6.88-22.49a.81.81 0 0 0 .08-.71c-.52-.08-1-.17-1.55-.28m8.31 5.17a78.14 78.14 0 0 0-3.73 18.81l1.22.06.55.06a76.31 76.31 0 0 1 3.71-18.49c.36-1.09-1.36-1.55-1.71-.47m7.54-.41q-2.26 10.36-3.8 20.84c.56.18 1.13.35 1.71.5q1.55-10.5 3.81-20.87c.24-1.11-1.47-1.59-1.71-.47m8.76 5.34a114.17 114.17 0 0 0-2.4 20.13c.59.08 1.18.14 1.77.19a111.57 111.57 0 0 1 2.34-19.78c.24-1.12-1.48-1.59-1.71-.47m8.39.65a173.64 173.64 0 0 0-2 20l1.77.1a169.27 169.27 0 0 1 1.91-19.68c.18-1.12-1.54-1.6-1.71-.47m5.67.86l-.32 19.8c.48.07 1 .14 1.44.23l.33.06q.2-10 .39-20.08a.89.89 0 0 0-1.78 0m11.89-2.19a57.57 57.57 0 0 0-3.53 23.37.86.86 0 0 0 .29.62l.79.23a.77.77 0 0 0 .7-.84 56.32 56.32 0 0 1 3.47-22.9c.4-1.07-1.32-1.54-1.71-.47m9.08 2.41a.89.89 0 0 0-1.78 0l-.43 10.62c-.11 2.73-.84 6.12.21 8.69.43 1 2.15.59 1.71-.47-1.09-2.67-.21-6.57-.1-9.4l.38-9.44m6.71 2.14l.89 17.94h.55l1.22-.25-.88-17.68c-.06-1.14-1.83-1.14-1.78 0m13.82-3a.89.89 0 0 0-1.78 0 182.31 182.31 0 0 0 .25 18.4c.07 1.14 1.85 1.14 1.78 0a182.18 182.18 0 0 1-.25-18.4m5.5 0a73.24 73.24 0 0 1 2.8 18.35.89.89 0 0 0 1.78 0 75.2 75.2 0 0 0-2.96-18.81.89.89 0 0 0-1.71.47m10.25.21a82.16 82.16 0 0 1 2.6 15.57c.08 1.13 1.86 1.14 1.78 0a84.71 84.71 0 0 0-2.66-16 .89.89 0 0 0-1.71.47m10.51-5.38c.75 6.57 3.37 12.69 3.92 19.32.09 1.13 1.87 1.14 1.78 0-.54-6.63-3.17-12.76-3.92-19.32-.13-1.12-1.91-1.14-1.78 0m10.84-1.12a.89.89 0 0 0-1.71.47l4.43 19.73a.89.89 0 0 0 1.71-.47l-4.43-19.73m10.67 5.65a11.8 11.8 0 0 0-1.08-2.92c-.74-1.35-2.66-2.91-1.91-4.61.46-1-1.07-1.94-1.53-.9-.91 2.06 0 3.44 1.12 5.2 2.18 3.32 2.34 7.43 2.86 11.28.15 1.12 1.93 1.13 1.78 0a79.17 79.17 0 0 0-1.24-8.05m5.26-9.86q2.85 8.9 4.89 18a10.36 10.36 0 0 0 1.79-.15q-2.07-9.28-5-18.33a.89.89 0 0 0-1.71.47m7.45-1.83a79.91 79.91 0 0 1 8.53 15.91c.54-.27 1.07-.53 1.59-.76-2.39-5.59-4.92-11.1-8.52-16-.67-.91-2.21 0-1.53.9m10.1-1.18a80.94 80.94 0 0 0 7 13.51l1.69-.65a78.14 78.14 0 0 1-7-13.34c-.42-1-2.14-.59-1.71.47m8.26-3.1c-1.14-.06-1.14 1.72 0 1.78.86 0 2.41 2.83 2.91 3.51l2 2.75 3.45 4.72 1.64-.75-5.56-7.62c-1.12-1.54-2.29-4.28-4.45-4.39m10.35-6.85c-.72-.89-2 .38-1.26 1.26 3.72 4.57 8.64 8.09 12.18 12.79l1.66-.74c-3.62-4.92-8.71-8.55-12.58-13.3m7.25-7c-.76-.85-2 .41-1.26 1.26 4.24 4.74 10.44 7.16 14.41 12.16.71.89 2-.37 1.26-1.26-4-5-10.17-7.43-14.41-12.16m23.26 5.1c-2.75-1.29-4.93-3.72-7.16-5.73l-6.67-6c-.85-.76-2.11.49-1.26 1.26l7.45 6.73c2.11 1.91 4.13 4.08 6.74 5.3 1 .48 1.93-1 .9-1.53m10.41-9.12q-7.39-5-14.26-10.69c-.87-.73-2.14.53-1.26 1.26q7 5.85 14.62 11c1 .64 1.84-.9.9-1.53m10.32-7.37a104.62 104.62 0 0 0-16.9-9.58c-1-.47-1.94 1.06-.9 1.53a104.59 104.59 0 0 1 16.9 9.58c.94.65 1.83-.88.9-1.53m4.71-5.78l-10.24-7.29c-.93-.66-1.82.88-.9 1.53l10.24 7.29c.93.66 1.82-.88.9-1.53m.05-12.27a70.16 70.16 0 0 0-9.66-5.5c-1-.49-1.93 1-.9 1.53a70.86 70.86 0 0 1 7.89 4.33c2.62 1.68 5.76 3.46 7.15 6.35a.8.8 0 0 0 .33.37q.54-.77 1.05-1.54c-1.3-2.45-3.62-4-5.88-5.54m-2.93-12.77a.89.89 0 0 0-.9 1.53c5 2.78 10 5.7 13.07 10.66a.9.9 0 0 0 .23.26q.47-.85.93-1.71c-3.25-4.9-8.29-7.91-13.34-10.75m4.76-5.64a.89.89 0 0 0-.9 1.53 46.59 46.59 0 0 1 11.62 8.79.79.79 0 0 0 .73.25q.33-.66.67-1.31a.94.94 0 0 0-.14-.2 48.12 48.12 0 0 0-12-9.06m1.09-9.54c-1.06-.43-1.52 1.29-.47 1.71a27.39 27.39 0 0 1 14 12.58c.34-.62.67-1.24 1-1.87a29.28 29.28 0 0 0-14.4-12.41m3.22-8.71c-1-.46-1.94 1.07-.9 1.53a59 59 0 0 1 15.18 9.76.89.89 0 0 0 .43.21 1.65 1.65 0 0 1 1.1-1 .8.8 0 0 0-.28-.49 60.46 60.46 0 0 0-15.54-10m-.3-5.46c5.72.77 11.66 1.69 15.91 5.91a23.65 23.65 0 0 0-1.64-3.57c-4.06-2.57-9-3.4-13.79-4-1.12-.15-1.6 1.56-.47 1.71m-4.92-5.2a66.57 66.57 0 0 1 9-4.4c-.23-.32-.46-.66-.67-1a2.38 2.38 0 0 1-.24-.54 68.55 68.55 0 0 0-9 4.41.89.89 0 0 0 .9 1.53m-10.99-18.09c-.44 5.87-1.34 11.72-4.73 16.68-.65.95.89 1.84 1.53.9 3.57-5.21 4.51-11.4 5-17.57.09-1.14-1.69-1.13-1.78 0m-6.78-3.81a144.05 144.05 0 0 1-4.24 16.83.89.89 0 0 0 1.71.47 144 144 0 0 0 4.2-16.79c.21-1.12-1.51-1.6-1.71-.47m-12-.12l-2.31 10a.89.89 0 0 0 1.71.47l2.31-10a.89.89 0 0 0-1.71-.47m-6.09-7.6a.74.74 0 0 0-.35.54 144.55 144.55 0 0 0-1.92 16 .81.81 0 0 0 .12.5l.78.35a.9.9 0 0 0 .88-.85 140.4 140.4 0 0 1 1.86-15.57.9.9 0 0 0-.08-.58l-1.29-.43m-13-1.67a.89.89 0 0 0-.18-.49l-1.29-.2a.74.74 0 0 0-.3.69 90.52 90.52 0 0 0 1.28 10.14 1.94 1.94 0 0 1 1.14.7l.15.18a.9.9 0 0 0 .48-1 86.52 86.52 0 0 1-1.28-10m-8.42-3.5l-1.42-.72a.91.91 0 0 0 0 .14 43.13 43.13 0 0 0 2.25 9.81l.26.11a10.7 10.7 0 0 1 1.81 1.17l.26-.08a40.42 40.42 0 0 1-2.7-10.18l-.46-.24m12.56 5.3l.2 13q.74.67 1.52 1.27a.8.8 0 0 0 .26-.64l-.23-13.68a.89.89 0 0 0-1.78 0m-233.58 112.73l.18-.29.35-.59c.12-.2.24-.38.37-.57l.07-.13a7.41 7.41 0 0 0-.44-.87l-.05-.08-1.2.07a1.92 1.92 0 0 0-.28.58.21.21 0 0 0 0 .16c-2.09 3.34-4.29 6.6-5.67 10.32l.82.67.57.52a.93.93 0 0 0 .16-.28 42.35 42.35 0 0 1 4.59-8.67 3.48 3.48 0 0 1 .5-.8c-.3.38-.05 0 0 0m-6.32-3.12l-.09-.12a9 9 0 0 1-1.72-.12v.08l-.11.11v-.05l-.13.21a20.37 20.37 0 0 0-2.52 6.22.89.89 0 0 0 1.71.47 19.19 19.19 0 0 1 1.73-4.75.22.22 0 0 0 .05-.08v-.07l.32-.57v-.07a6.07 6.07 0 0 0 .48-.62v-.05a4.22 4.22 0 0 1 .33-.32.22.22 0 0 0 0-.31m-10.34 3.44c-.23 1.12 1.48 1.59 1.71.47a25.77 25.77 0 0 1 1.59-5c-.55-.19-1.1-.4-1.65-.62a27.26 27.26 0 0 0-1.65 5.18m-6.79-8l-1 2.84c-.38 1.08 1.33 1.54 1.71.47l1-2.84a.87.87 0 0 0 .05-.32c-.55-.1-1.1-.23-1.64-.38a1 1 0 0 0-.12.23m-148.29-10.38a39.35 39.35 0 0 1-14.36 8.11c-5.32 1.51-10.93 1.09-16.29 2.38-5.2 1.25-10.06 3.64-14.83 6-5.21 2.57-10.38 5.22-15.54 7.88-4 2-7.5 4.33-8.1 9.1-.36 2.84.23 5.66.57 8.47a282.4 282.4 0 0 0-17.3 23c4.8-14.53 8.69-29.43 7.91-44.86a.85.85 0 0 0-.5-.76 41.75 41.75 0 0 1-1.23 13.88 44.32 44.32 0 0 1-1.15 5.22c-1.79 11.21-5.35 22.16-9.08 32.93-.34.57-.7 1.13-1 1.7-3.06 5.2-2.87 11-2.78 16.85.09 5.57.68 11.07 2.94 16.16a54.49 54.49 0 0 0 4.78 12.72c2.64 5 6.15 9.56 8.24 14.84 4.46 11.24 1.3 23.64-2.23 34.67s-8 22.68-6.66 34.58c.65 5.86 3.16 11.28 3 17.24-.12 6.11-2 12-3.66 17.87-1.94 6.8-3.76 13.65-5.81 20.42a27.47 27.47 0 0 0-1 2.72 1 1 0 0 0-.33.81 28.19 28.19 0 0 1-1.95 11.69h2.34a29.87 29.87 0 0 0 1.84-10.31 1.6 1.6 0 0 0 .61-2.12.75.75 0 0 0-.14-.2 46.73 46.73 0 0 0 1.94-6.16l2.61-9.17c1.54-5.43 3.26-10.84 4.5-16.34a37.43 37.43 0 0 0 .76-15.13c-.48-2.58-1.32-5.07-1.91-7.62a36.66 36.66 0 0 1-.86-9.34c.66-21.06 16.8-41.36 9.56-62.74-1.81-5.36-5.1-10-7.89-14.83a53.65 53.65 0 0 1-4.67-10.63c-1.33-2.15-2.87-5.31-2.67-7.76h-.25a49.12 49.12 0 0 1-1.33-12.41 58.62 58.62 0 0 1 .3-8.79 14.12 14.12 0 0 1 .53-2.24 1.41 1.41 0 0 1 .11-1 36.22 36.22 0 0 1 2.46-4.07l.21-.6.51-.8a298.76 298.76 0 0 1 19.31-26.73 27 27 0 0 0 1.26-5.76 1.39 1.39 0 0 1 .07-.32c0-.35-.08-.7-.12-1-.22-2.21-.33-4.65.76-6.68 1.43-2.65 4.37-3.94 6.92-5.26 5-2.57 10-5.13 15-7.61 4.8-2.37 9.67-4.76 14.92-5.93s10.62-.8 15.78-2.26a38.21 38.21 0 0 0 12.32-6.32c7.49-5.59 13.35-13 20.62-18.87.4-.32.8-.62 1.2-.93 1.79-2.39 5.56-4.34 7.33-5.43a129.64 129.64 0 0 1 16.94-8.36 71.91 71.91 0 0 0-22.21 10.1c-8.32 5.7-14.65 13.53-22.31 20m151.93-6.15a.78.78 0 0 1 .12-.16s-.08 0-.13.15m324.43-34.21l-.76 1.59a54.56 54.56 0 0 1-3 9.2c0 .29 0 .58-.06.88a1 1 0 0 0 0 .29c-8.8 20.41-23.71 37.9-41.44 51.36-25.47 19.33-56.53 29.38-87.33 36.54a382.39 382.39 0 0 1-50.57 8.2l.44-.14a.85.85 0 0 0 .56-.53h-1.8c-2.3.47-4.62.91-6.91 1.38a37.65 37.65 0 0 1-4.23.62 55.57 55.57 0 0 1-22.81.21c-4.09-.91-7.92-2.63-12-3.69a26.26 26.26 0 0 1-2.83-.43c-.58-.12-1.16-.27-1.74-.43a27.69 27.69 0 0 1-7-1.59c-2.3-.94-4.47-2.12-7-2.46a37.28 37.28 0 0 0-7.34.11 20.59 20.59 0 0 1-9.74-1.61c-5.15-2.22-9.91-5.22-15.09-7.41a111 111 0 0 0-15.44-5.17 38.27 38.27 0 0 1-7.31-2.36 36.37 36.37 0 0 1-7.42-5.31 144.6 144.6 0 0 1-23.44-25.67.81.81 0 0 0-.07-1.13 50.9 50.9 0 0 1-3.63-4c2.7.18 5.32-.58 8 1.09a.91.91 0 0 0 1.08-.14l.45-.48a5 5 0 0 0 .56.66.9.9 0 0 0 1.08.14l1-.64a5.27 5.27 0 0 0 3.46 1.18c3.15.18 6.34.09 9.5.1l.61 1.48a.9.9 0 0 0 1.31.53l1.05-.69a8.55 8.55 0 0 0 3.46 1.72.89.89 0 0 0 .86-.23l1.27-.13a1 1 0 0 0 .6.26l.14-.09a2.18 2.18 0 0 1 1-.28 14.25 14.25 0 0 1 6.06-.69.87.87 0 0 0 .77-.44l2.13-.18a.9.9 0 0 0 1.4.18 2 2 0 0 1 2.64-.94.9.9 0 0 0 1.48.39 23.66 23.66 0 0 1 7.27-3.82 8.06 8.06 0 0 0 2.65 3.86c5 4.7 11.23 7.61 17.76 9.67 9 2.84 18.44 4.67 27.68 6.64 20.06 4.28 40.14 6.64 60.66 5 19.93-1.56 39.72-5.78 58.91-11.27a85.54 85.54 0 0 0 25.16-11.33 139.6 139.6 0 0 0 19.94-17.2c11.87-12 24.67-24.39 31.64-39.88a1.38 1.38 0 0 1 .16-.61 29.82 29.82 0 0 0 3.43-13.08 1.25 1.25 0 0 1 .39-.9c.14-1.23.32-2.46.58-3.67.26-2.16.43-4.33.49-6.51-.5-5.27-.76-10.64-3-15.48-.19 1.41.56 3.39.7 4.51a70.69 70.69 0 0 1 .18 16.17l-.06-.06v.39c0 .58 0 1.15-.11 1.72a1.37 1.37 0 0 1-.12.41v.06q-.49 3.6-1.34 7.17l-.68.19h-.2a15.82 15.82 0 0 1-9.05-2c-2.18-1.26-4-3-6.24-4.18s-4.85-2-7.17-3.22a46.33 46.33 0 0 1-6-4 96.88 96.88 0 0 1-13.73-11.68 88 88 0 0 1-9.91-13.36c-3.46-5.59-6.93-11.39-10-17.39 7.61 4.3 15 8.48 23.78 10.27a107.78 107.78 0 0 0 14.33 2.26c5.39.36 10.21.45 15.29 2.55 9.72 4 19.07 9.41 26.06 17.37 3.47 4 6.51 8.28 9.64 12.5 2.93 4 6.09 7.83 8.76 12 3.45 5.37 2.88 10.12.28 15.66m-339.72 46.2a11.1 11.1 0 0 1-2.75-1.4 27.83 27.83 0 0 1-2.6-2.09.9.9 0 0 0-1.26 0l-.84.91-1.17-.84a.9.9 0 0 0-.9 0l-.55.26a2.69 2.69 0 0 0-2.82-1.13l-1.51-3.4a.9.9 0 0 0-1.22-.32l-.8.49-1.12-2.94a.9.9 0 0 0-1.3-.53l-.52.36a56.76 56.76 0 0 0-3-5.94c-1.48-2.54-3.63-4.62-3.7-7.7a.9.9 0 0 0-1.52-.63c.33-.3-.58-4.44-.7-5.12-.33-1.93-.76-3.85-1.27-5.74a63.31 63.31 0 0 0-2-6.21c.38.45.78.9 1.17 1.34q-.28-1.07-.57-2.13c2.34 2.74 3.5 6.56 4.84 9.87 1.68 4.14 3.6 8.09 6.76 11.3a.91.91 0 0 0 1.26 0l2.16.65.5 1.41c.17.56.24 1.15.43 1.7a6.75 6.75 0 0 0 1.22 2.24c1.41 1.7 3.55 2.56 5.48 3.5a.93.93 0 0 0 1.08-.14c2.2-2.13 5 1.83 6.86 3a13.23 13.23 0 0 0 4.9 1.78 13.6 13.6 0 0 0 9.47-2l.15-.12a7.41 7.41 0 0 0 .83.33.86.86 0 0 0 1.08-1 1.34 1.34 0 0 0 .44-.28.8.8 0 0 0 .6 0 5 5 0 0 0 3.27-2.9c1.1.84 1.32 2.54 3.45 1.91 2.81-.82 2.75-4.51 5-6 2-1.31 3.34-2.25 4.46-4.51s1.76-4.62 3.12-6.71a5.6 5.6 0 0 0 6.43-2.19c2.07-2.85 1.76-6.49 1.78-9.92a92.15 92.15 0 0 1 6.54 10.52.86.86 0 0 0 0 .14l.94 3.71a.89.89 0 0 0 1.69.06 1 1 0 0 0 .1-.21 72.23 72.23 0 0 0 1.08-40.13l1.67 1.13a1 1 0 0 0 .19.33v-.09.09a.83.83 0 0 0 .33.38 22.71 22.71 0 0 1 2.26 3.08.91.91 0 0 0 1.2.3 88.75 88.75 0 0 1 12.76 17.57c2.9 5.24 5.5 11.39 11.72 12.85a4.12 4.12 0 0 0 2.8 1.7.91.91 0 0 0 1.09-.62 23.18 23.18 0 0 0 .76-7.45 23.08 23.08 0 0 0 4.42 3.62.9.9 0 0 0 1.3-.53l1.28-4.75 2.23 1.14a.9.9 0 0 0 1.22-.32 17.68 17.68 0 0 0 1.59-6.17l2.44 1.1a.9.9 0 0 0 1.3-.53l1-6.65c2 .41 4 2.74 6.07 1.15.94-.74 1.13-2.13 1.41-3.2.56-2.16 1.09-4.32 1.63-6.48l2.19 1a.92.92 0 0 0 1.22-.32 16.28 16.28 0 0 0 2.21-5.06l1.52.59a.9.9 0 0 0 1.09-.62l1.87-5.54c2.66 0 4.14-2.48 4.94-4.95 2.4 1.15 5.08-2 5.51-4.39.28-1.55.17-3.33 1-4.72s2.74-2.17 4.07-3.22a5.69 5.69 0 0 0 2.47-4.06c4.75.62 4.57-7.18 5.81-10.53l1 .71a.9.9 0 0 0 1.08-.14 6.43 6.43 0 0 0 1.7-4.21c.2-1.77.07-3.57 1.78-4.67.92-.59 2-.79 2.86-1.45 3.17-2.3 4.33-6.33 5.06-10.06l.82.66a.9.9 0 0 0 1.48-.39 138.32 138.32 0 0 0-.93-74.78 96.9 96.9 0 0 0-5.01-14.75.83.83 0 0 0 .21-1.1 18.45 18.45 0 0 0-1.74-2.5 9 9 0 0 0 2.53-2.62c.52-.79.94-1.63 1.47-2.41 1-1.46 1.19-.91 1.78.57.9 2.24 1.37 6 4.09 6.9a2 2 0 0 0 2.3-.6 4.1 4.1 0 0 0 .43-1.35c.27-.35.62-.8.93-1.15a3.12 3.12 0 0 0 1.15.23 1.7 1.7 0 0 0 .74-.44 2.89 2.89 0 0 0 .69.17 3 3 0 0 1 2.52 1.16c0 .51.1 1 .15 1.54a.71.71 0 0 0-.5 1q.54 1.31 1.06 2.63c.08.84.17 1.69.24 2.53a.94.94 0 0 0 1 .85 159.89 159.89 0 0 1 9.32 42.91l-.48-.33a.89.89 0 0 0-1.48.87c.46 1.79 3.42 17.32-.32 17.24a.9.9 0 0 0-.86 1.12c.8 5.52 1.22 10.73.28 16.27-.62 3.71-1.32 7.28-1.08 11a1 1 0 0 0-1 .65l-.35.9a.84.84 0 0 0-.33.34c-4.49 8.18-8.6 16.76-14.5 24.05-5.61 6.95-12.07 13.24-18.2 19.72a24.63 24.63 0 0 1-4.93 4.59 4.12 4.12 0 0 0-2.14 2c-.94 2.08-.44 3.15-2.39 4.9a7.13 7.13 0 0 0-2.23 2.45c-.66 1.41-.63 3.68-1.87 4.76-1.61 1.39-2.2-.12-3.65.38a2.87 2.87 0 0 0-1.52 1.77 44.85 44.85 0 0 0-2.31 5.95l-1.7-1.74a.9.9 0 0 0-1.48.39c-1.42 7.28-7.92 11.61-13.6 15.59a103 103 0 0 1-9.23 6.09 7.17 7.17 0 0 0-3.39 4.45l-1-.83a.9.9 0 0 0-1.4.18l-2.21 3.6a.79.79 0 0 0 .22 1.12c-1.18 1.29-2.86 2.84-3 1.15a.9.9 0 0 0-1.66-.45 49.33 49.33 0 0 1-3.39 4.69c-1.09-.91-3-.37-4 .79s-1.29 2.56-3.29 1.95a8.88 8.88 0 0 0-1.07-.7 1.61 1.61 0 0 0-1.45.39c-1.44.89-.45 1.21-2.71 1.48-1.44.17-1.77 0-2.88 1-2.24 2.09-4.64 1.67-7.55 2.14a28.83 28.83 0 0 0-12.34 4.84c-1.11-1.44-3.09-.67-4.45.57a2.79 2.79 0 0 0-2-.6 4.6 4.6 0 0 0-1.6.58l-.56.54a9.42 9.42 0 0 1-2.13 0 22.57 22.57 0 0 0-3.34.61 4.19 4.19 0 0 1-2 0 5.61 5.61 0 0 0-1.29.12c-.41.05-.54.37-.89.39-.83 0-2.1-1.07-2.59-1.53a.91.91 0 0 0-1.08-.14l-.72.47-.43-1a.93.93 0 0 0-.86-.65l-6.48-.06c-1.66 0-5 .54-6.15-1.05a.9.9 0 0 0-1.22-.32l-.86.57-.36-.57a.9.9 0 0 0-1.48-.39l-.85.89a10.12 10.12 0 0 0-6.19-1.05 9 9 0 0 1-3.73-.41m97.38-16.68l.29-.45.3.25a4.61 4.61 0 0 0-.59.2m81.3-195.24a6.92 6.92 0 0 1 .9-.82v-15.5a50.5 50.5 0 0 0 6.19 10.69.9.9 0 0 0 1.62-.21c1.22-4.85-1.2-10.2-2.09-15a116.23 116.23 0 0 1-1.76-14.2l.18.24a.89.89 0 0 0 1.48-.4c1.6-5.32-1.67-10.65-.75-15.88 2.74 3.15 7 6.41 11.12 5.55 5.29-1.1 6.16-7.19 6.41-11.64a.84.84 0 0 0-1.27-.76c-.21-1.66-.38-3.31-.49-5 2.27 2.27 5.49 5.25 7.65 2.43 1.35-1.76 1.58-4.36 1.79-6.49a47.52 47.52 0 0 1 .54-4.92 3.07 3.07 0 0 1 .95-2c1.06-.93 1.47-.29 2.65.47 3.13 2 7.62 4.11 9.61-.54 1-2.35 1-5.35 1.07-7.85.07-1.91.06-3.82 0-5.73.58 1.42 1.17 2.84 1.84 4.2s1.19 2.12 2.68 2.21a.9.9 0 0 0 .86-.65c1.41-4.11-.25-8.6-1.35-12.6l-.54-1.91a1.35 1.35 0 0 1-.6-1.16 6 6 0 0 1 0-.75.82.82 0 0 0 .69-.08 19.75 19.75 0 0 1 25.89 6.11c5.75 8.72 4.59 19.83 2.31 29.45-2.58 10.88-5.36 21.52-6.93 32.62-.74 5.25-1.23 10.54-2 15.78-.86 5.7-3.65 10-6.51 14.91-3.11 5.31-5.76 10.81-8.5 16.31a38.52 38.52 0 0 1-3.6 6 1.32 1.32 0 0 1-.18.59c-.94 1.64-2.82 2.54-4.23 3.73l-.46.38-1.64 1.59a1.41 1.41 0 0 1-.79.41c-.35.28-.71.55-1.08.82-3.6 3.93-8.1 7.1-13.15 4.69-4.3-2.05-3.27-7.71-3.32-11.76a31.85 31.85 0 0 0-1.22-5.6 9.53 9.53 0 0 0-1.82-2.79 13.78 13.78 0 0 1 1.83 5.61 8.74 8.74 0 0 1 0 1.08c.06.45.11.9.13 1.35a27.09 27.09 0 0 1-.64 6.14c0 .62.09 1.23.18 1.85a7.31 7.31 0 0 0 6.45 6.48c6.19 1 10.76-3.1 14.48-7.63-.2.43-.42.85-.65 1.26.18-.12.37-.25.56-.36v.21a.88.88 0 0 0-.22.55c-.25 4.74-2.07 11.07 2.41 14.28a30.4 30.4 0 0 0 2.84 1.82v.14a.85.85 0 0 0-.33.66c-.68 14.74 4 28.73 10.4 41.8a.82.82 0 0 0 .31 1.18l.39.22c1.37 2.74 2.82 5.44 4.3 8.1 4.3 7.71 8.73 15.49 14.31 22.35a85.69 85.69 0 0 0 20.57 17.72c4.17 2.64 8.92 3.92 12.94 6.85 3.67 2.68 7.43 4.24 12 4.13a1.08 1.08 0 0 0 1.15.39c-5.23 16.74-17.63 29.37-29.62 41.79-12.45 12.91-25.59 24.92-42.92 30.68a279.81 279.81 0 0 1-57.32 12.3 196.15 196.15 0 0 1-58.54-2.63c-10.31-2-20.64-4.22-30.8-6.85-8.18-2.12-16.34-5-22.5-10.95a.84.84 0 0 0-.13-.46c-.51-.84-1-1.66-1.58-2.48a34.55 34.55 0 0 1 4.2-.8c1.77-.22 3.94.07 5.61-.68s1.54-1.79 3.63-2.3c.76-.18 1.4.08 2.16-.39s.69-1.2 1.82-1l.84.65a3.08 3.08 0 0 0 2.16-.11 4 4 0 0 0 1.35-1c.08-.09 2.63-3.93 3-2.08a.89.89 0 0 0 1.48.4 51.78 51.78 0 0 0 3.55-4.65 2.7 2.7 0 0 0 2.1.76c3-.14 3.38-4.23 6.21-4.71a.71.71 0 0 0 .62-.57.82.82 0 0 0 .82-.59c.61-2.31 1.26-3.71 3.41-4.92 1.61-.91 3.1-1.91 4.62-3 2.95-2.06 5.95-4.07 8.81-6.26 4.1-3.13 7.88-6.82 9.38-11.79l1.6 1.64a.9.9 0 0 0 1.49-.39 42.81 42.81 0 0 1 2.37-6.32c1.35-2.46 1.74-.65 3.68-1.37 2.71-1 2.61-4.07 3.69-6.23.81-1.61 2.58-1.91 3.52-3.38.72-1.12.47-2.51 1-3.67.67-1.51 3-2.47 4.14-3.65 1.58-1.58 3.08-3.25 4.61-4.87 6-6.32 12.3-12.46 17.61-19.37 5.07-6.6 8.82-14.19 12.78-21.5a.91.91 0 0 0 .62-.56l.52-1.35.39.06a.91.91 0 0 0 1.09-1.09c-.7-5.16.91-10.09 1.45-15.17a51 51 0 0 0-.66-12.66c2-.63 2.29-3.38 2.42-5.33a43.44 43.44 0 0 0-.86-11.75l.52.23a.89.89 0 0 0 1.12-.86 161.39 161.39 0 0 0-10.77-48.4c-.1-1-.18-2-.29-3 0-.18 0-.37.06-.55m-290.23-27.76a.74.74 0 0 0-1-.14 31.3 31.3 0 0 1-1.78-3.88c-1.45-2.42-2.34-4.79-2-6.67 1.43 4 5.19 6.83 8.71 9a42.88 42.88 0 0 0 14.15 5.26 67.13 67.13 0 0 1 16.77 5.73c5.07 2.69 10.65 5.3 12.54 11.15a.84.84 0 0 0 .7.6 1.18 1.18 0 0 1-.31.68 29.6 29.6 0 0 0-4.08-3.3 25.13 25.13 0 0 0-12.45-4.61c-5.43-.71-10.44-2.9-15.5-4.87-2.72-1.06-5.47-2.06-8.17-3.19a19.79 19.79 0 0 1-7.57-5.78m610.13 282.18c-6.46-3.13-13.2-5.66-19.56-9a66.81 66.81 0 0 1-18.33-14.7c-4.9-5.35-9.56-11.71-15.58-15.86-6.34-4.38-13.25-7.86-19.55-12.34a176.46 176.46 0 0 1-18.21-14.99 70 70 0 0 0-7.28-6.3 30.42 30.42 0 0 0-9-4.06 24.66 24.66 0 0 1-6-2.46c-1.56-1-3-2.21-4.59-3.07-3.47-1.84-7.42-1.4-11.13-2.34-4.35-1.1-8.18-3.7-12-6l-13.15-8a.79.79 0 0 0-.66-.1 11 11 0 0 0-.3-1.24c-1.36-4.5-4.76-8.25-7.5-12-3.12-4.22-6.2-8.47-9.39-12.65a66.54 66.54 0 0 0-23-19.21c-4.28-2.21-9-4.62-13.71-5.58-5.22-1-10.64-.58-15.91-1.45-5.69-.93-11.62-1.86-17-4-5.81-2.34-11.24-5.8-16.7-8.88-6.46-13-11.09-26.94-10.49-41.51l.83-.07c2.1.79 4.28 1 5.89-.44a.82.82 0 0 0-.19-1.36c5.44-3 9-9.12 10.61-15.18 1.48-5.66 1.71-11.55 2.69-17.31a180.73 180.73 0 0 1 4.46-18.1c3.31-11.9 6.68-23.81 10.83-35.45 2.2-6.17 4.62-12.25 7.33-18.21 2.3-5 4.62-10.07 5.35-15.63.9-6.89.71-13.74 2.19-20.59a76.81 76.81 0 0 1 5.48-16.19c.47-1.7 1.07-3.37 1.56-5.09a1 1 0 0 0-.26-.11 40.68 40.68 0 0 0 2-14.8c-.14-5.93-.92-11.82-1.07-17.75s.13-11.82.45-17.71c.63-11.58 1.45-23.28-.43-34.8s-7-21.56-12.75-31.49q-3.19-5.53-6.48-11a1.19 1.19 0 0 1-.32-.23l-1.15-1.18a1.34 1.34 0 0 1-1-.55c-.63-.83-1.26-1.66-1.87-2.5-.38-.41-.74-.83-1.11-1.24-2.42-3.07-5-6-7.7-8.87a.61.61 0 0 0-.9 0 116.57 116.57 0 0 0-13-10 216 216 0 0 0-18.39-11.54 56 56 0 0 0-9-4 18.46 18.46 0 0 1-4.8-2 22.48 22.48 0 0 1-3.84-3.5c-3.92-4.3-7-9.55-12.13-12.48a.63.63 0 0 0-.3-.43c-11-7.06-22-13.89-33.38-20.33-5.58-3.17-11.19-6.29-16.89-9.26a65.25 65.25 0 0 0-16.67-6.47c-6-1.25-12.22-1.59-18.32-2.08-6.64-.54-13.3-.94-20-.93-13.19 0-26 2.49-39 4.77-8.77 1.55-17.56 3.05-26.31 4.71l1.4-.7c-4.59 1-9.16 2.05-13.68 3.31q-2.66.56-5.31 1.16a.57.57 0 0 0-.47.56 129 129 0 0 0-13.54 5.08c-12.82 5.72-24.6 13.56-37.62 18.83a.64.64 0 0 0-.34.09l-.3.17-1.39.55a.66.66 0 0 0-.41.45 92.61 92.61 0 0 0-10.48 6.19c-3.19 2.34-4.47 6.2-7.47 8.8-2.76 2.4-5.92 4.39-8 7.5a65.45 65.45 0 0 1-3.8 5.95 23.43 23.43 0 0 1-4.56 4.21c-2.67 1.45-3.11 4.24-3.46 7.19-.71 5.82-4.71 9.56-9.23 12.86-6.89 5-14.4 9.26-17 17.94-.7 2.36-2.07 4-3 6.16-.9 2-.7 4.26-1.17 6.35-1.07 4.84-4.57 8.79-7.68 12.47-3.47 4.09-7 8.14-10.41 12.28-2.71 3.3-5 6.78-5.78 11.07-.82 4.77-.3 9.86.47 14.6.48 2.94.81 9.48 5 9.51a.89.89 0 0 0 0-1.78c-2.58 0-3.07-7-3.34-8.74a56.13 56.13 0 0 1-.68-9.39c.11-6.44 2.91-10.81 6.94-15.58 3.75-4.45 7.62-8.81 11.28-13.34 2.66-3.28 5.18-6.87 6-11.08.21-1 .24-2.07.38-3.1a11.34 11.34 0 0 1 2-4.77 27.7 27.7 0 0 0 2.13-5.56c2-5.63 6.89-9.34 11.6-12.62 3.82-2.65 7.89-5.22 10.84-8.88a15.29 15.29 0 0 0 2.88-5.27c.83-2.88-.1-7.51 3.33-8.91a1 1 0 0 0 .58-1 25 25 0 0 0 6.09-6.88 24.83 24.83 0 0 1 3.94-5.6c1.42-1.36 3-2.53 4.53-3.77a22.84 22.84 0 0 0 3.75-3.68c1.4-1.82 2.16-3.89 4-5.38 3.72-3 8.49-5.16 12.69-7.53 11.22-4.48 21.5-10.88 32.27-16.28a141.7 141.7 0 0 1 25.48-9.65c10.85-2.29 21.79-4.19 32.71-6.11 12.86-2.27 25.77-5.11 38.85-5.59a226.32 226.32 0 0 1 39.17 2.15c12.51 1.75 23.45 8.54 34.29 14.62 12 6.71 23.65 13.85 35.18 21.26a.54.54 0 0 0 .33.58c5.21 2.49 8.31 7.41 11.94 11.67a22.91 22.91 0 0 0 6 5.4c2.92 1.62 6.46 2.24 9.51 3.66 6.26 2.92 12 6.85 17.81 10.61a130.51 130.51 0 0 1 17.45 13 60.85 60.85 0 0 1 9.34 10.75c.56.56 1.12 1.12 1.66 1.69q3.36 4.67 6.27 9.66a.6.6 0 0 0 .54.32c5.44 9.31 10.83 18.81 13.24 29.4 2.64 11.56 2 23.53 1.38 35.27-.32 5.91-.68 11.81-.67 17.73s.58 11.54.94 17.31c.42 6.84.28 13.74-2.55 20.1-2.15 4.84-5.07 9.32-5 14.81a.94.94 0 0 0 .07.35 76.88 76.88 0 0 0-2.57 14.39c-.49 6.12-.43 12.07-2.55 17.93-2 5.61-4.84 11-7.08 16.49a343.73 343.73 0 0 0-11.23 33.55c-3.15 10.91-6.76 21.93-8.28 33.22-1.4 10.45-3.09 27.75-16.19 29.52-.55-.23-1.09-.49-1.63-.76-1.86-.94-3.66-1.79-4.53-3.77-1.13-2.56-.56-6.14-.25-9.16a.68.68 0 0 0 .14-.31 17.83 17.83 0 0 0 .26-3 .92.92 0 0 0 0-.28 1.15 1.15 0 0 1 .36-.29l.21-.13a5.46 5.46 0 0 0 .39-.39c.25-.27.48-.56.72-.83l.06-.05a1.19 1.19 0 0 1 .83-.41l-.5.07c5.61-4.84 8.5-13.37 11.85-19.66 2.8-5.25 6.69-10.24 8.78-15.82 2-5.4 2.11-11.66 2.84-17.34.88-6.78 1.91-13.56 3.35-20.25 1.39-6.46 3.39-12.78 4.75-19.25 2.07-9.85 2.36-21.2-4.12-29.58-6.34-8.22-18.17-10.32-27.17-5.39a.61.61 0 0 0 .13-.14 6.74 6.74 0 0 1 .64-.85 2.71 2.71 0 0 1-1.82-.9 4.22 4.22 0 0 1-1.57-1.12 10.5 10.5 0 0 1-1.68-2.72.86.86 0 0 0-.19 1.07 24.21 24.21 0 0 0 1.61 2.63q.92 2.94 1.77 5.89c1.1 3.86 3.09 8.72 2.21 12.83-.94-1-1.69-3.72-2.05-4.58l-2.09-5c-.35-.85-1.79-.86-1.74.24.23 5.32.81 11.18-.35 16.43-1.71 7.78-7.56-.85-11.08-.23-2.62.46-2.77 4.57-3 6.61s.11 6.34-1.4 7.79c-2 1.88-5.65-2.69-6.88-3.76a.9.9 0 0 0-1.52.63 83.55 83.55 0 0 0 1.25 11.49.83.83 0 0 0 .18.39c-.59 3-2 5.81-5.43 5.88-3.8.08-7.4-3.24-9.53-6.12a.9.9 0 0 0-1.62.22c-1.89 5.14 1.12 10.25.7 15.38a9.82 9.82 0 0 1-.59-1.68.89.89 0 0 0-1.74.24 123 123 0 0 0 1.44 15.54q.62 3.93 1.51 7.82c.56 2.45 1.45 4.93 1.42 7.44a49.32 49.32 0 0 1-6.39-13.05.89.89 0 0 0-1.75.24v15.22l-.07-.21c-.18-.54-1.89-.05-1.72.46l.19.57v.6699999999999999a11.49 11.49 0 0 1-1-1.44.9.9 0 0 0-1.22-.32 8.27 8.27 0 0 0-1.34 1.64 1.54 1.54 0 0 0-.83-.14 2.14 2.14 0 0 0-.79.31 4.31 4.31 0 0 0-.87-.16.88.88 0 0 0-.76.44 10.32 10.32 0 0 0-.49 1.88c-1.93 2.07-3.07-2.66-3.34-3.48-.38-1.17-.72-3.51-2.16-4-1.14-.37-1.87.45-2.54 1.27-1.48 1.8-2.12 4.08-4.18 5.4h-.05a16.67 16.67 0 0 0-1.52-1.38.91.91 0 0 0-.89-.16c-.12-7.85-5.12-13.89-10.41-19.2-6.1-6.12-11.83-12.69-18.28-18.44-10.13-8.97-22.3-16.23-30.47-27.23a.93.93 0 0 0 .14-1.34c-6.26-7.32-12.75-15.16-14.59-24.89a23.4 23.4 0 0 1 1.79-14.77c1.68-3.44 3.77-6.63 3.39-10.62a.9.9 0 0 0-1.34-.77 17.59 17.59 0 0 0-6.07 6.16q1.58-4.75 3-9.57a78 78 0 0 0 2.69-10.72c.18-1.27.69-3.85-1-4.46-1.88-.66-3.43 2-4.3 3.24-2.09 2.86-3.69 6.06-6 8.74-.57.65-1.34 1.54-1.79.16-.16-.49.7-2.63.85-3.11a39.86 39.86 0 0 1 2.32-5.77c1.4-2.82 3.46-5.4 3-8.71a.9.9 0 0 0-1.52-.63 63.61 63.61 0 0 0-7.88 8.34c-1.92 2.46-3.58 5.43-6.14 7.28a45.51 45.51 0 0 1 9.57-15.09.89.89 0 0 0-1.26-1.26c-5.79 5.92-11.61 11.82-17.36 17.78-.68.71-1.44 1.44-2.22 2.2 1-2.17 2.07-4.32 3.26-6.37a115.43 115.43 0 0 1 14.1-19.27.91.91 0 0 0-.17-1.37c2.42-1.73 4.89-3.4 7.42-5a.88.88 0 0 0 1.52 0l.92-1.63a.9.9 0 0 0-1.22-1.22c-10.55 6.29-20 14.09-29.14 22.31-7.28 6.58-14.66 13.28-20.39 21.28 5.85-17.5 20.89-29.82 36.45-39.07a.89.89 0 0 0-.9-1.53c-17.5 10.39-34.34 24.7-38.74 45.54a.89.89 0 0 0 1.62.68c5.91-10 14.65-17.92 23.2-25.65 5.31-4.8 10.76-9.45 16.47-13.73a116.92 116.92 0 0 0-12.18 16.84c-2.22 3.74-4 7.8-5.84 11.77-2.67 2.89-5 6.1-5.34 9.72-.09 1 1.2 1.08 1.66.45a54.9 54.9 0 0 0 4.74-8.32l1.08-1.16c2.36-2.59 4.8-5.11 7.25-7.62l6.47-6.62a48.15 48.15 0 0 0-3.48 8 .89.89 0 0 0 1.09 1.09c3.11-1.3 5.06-3.7 7-6.36a68.15 68.15 0 0 1 8.06-9.27c-.59 2.89-2.81 5.75-3.88 8.35-1 2.43-2.86 6.2-2.45 8.88.83 5.5 7.15-3.35 8-4.62s1.68-2.68 2.57-4a14.2 14.2 0 0 1 1.83-2.47c1.06-1 .72-.81 1.16 0 .64 1.11-1 5.23-1.3 6.52q-.72 2.71-1.5 5.41c-2.18 7.55-4.72 15-7.58 22.32a.81.81 0 0 0 1 1.05l-.18.62a.89.89 0 0 0 1.71.47c1.7-6 4.1-14.15 9.42-18.16-.37 4.4-3.68 8.14-4.85 12.4a26.71 26.71 0 0 0-.07 12.86c1.76 7.82 6.35 14.43 11.37 20.56a.82.82 0 0 0 .1.65c7.37 12.67 20 20.49 31 29.68 6.31 5.29 11.74 11.42 17.5 17.28 6 6.12 13.42 12.37 13.49 21.69a.87.87 0 0 0 1.12.83.77.77 0 0 0 .28.42 17.08 17.08 0 0 1 2.93 3 .89.89 0 0 0 0 .73 94.09 94.09 0 0 1 4.7 12.22.83.83 0 0 0 0 .48q.67 2 1.26 4.09a94.64 94.64 0 0 1 2.87 22.23.9.9 0 0 0 1.71.37 136.45 136.45 0 0 1-3.38 49.65l-.9-.73a.9.9 0 0 0-1.48.39 31.12 31.12 0 0 1-1.56 6.14c-1.13 2.82-2.79 4.19-5.43 5.53-3.82 1.94-1.77 6-3.73 8.76l-1.22-.84a.9.9 0 0 0-1.22.32 8.29 8.29 0 0 0-1.36 3.7c-.3 2-.19 8-4.06 6.59a.9.9 0 0 0-1.09 1.09l-1.2 3.13a14.35 14.35 0 0 1-1.69 1.21l-1.52 1a6.81 6.81 0 0 0-2.06 2.34 8.71 8.71 0 0 0-.74 2.64c-.16 1-1.34 7.86-3.92 4.8a.89.89 0 0 0-1.48.39c-.42 1.79-1.41 5.37-4 4.95a.92.92 0 0 0-1.09.62l-1.79 5.29-1.62-.63a.89.89 0 0 0-1.09.62 15.11 15.11 0 0 1-1.83 4.92l-2.45-1.1a.9.9 0 0 0-1.3.53c-.37 1.49-1.47 9.7-3.41 9.9-.74.08-2-1-2.7-1.32a4.67 4.67 0 0 0-2.27-.4.91.91 0 0 0-.86.65l-1 6.31-2.61-1.17a.9.9 0 0 0-1.34.77 15.2 15.2 0 0 1-1.08 5.85l-2.36-1.21a.9.9 0 0 0-1.3.53l-1.24 4.61a20.64 20.64 0 0 1-4.79-4.7.89.89 0 0 0-1.62.68 21 21 0 0 1-.09 8.29l-.77-.65-.68-.57a.92.92 0 0 0-1.7-.1c-6.24-2.24-8.88-11.06-12.14-16.2a91.82 91.82 0 0 0-12.05-15.12.85.85 0 0 0-.4-.24l-.27-.78a2.34 2.34 0 0 0-2.16-1.85h-.18l-3.33-2.25a.9.9 0 0 0-1.3 1 70.46 70.46 0 0 1 .53 38.15l-.16-.12a.36.36 0 0 1-.08-.07.89.89 0 0 0-.63-1.3 92.32 92.32 0 0 0-7.68-11.86.9.9 0 0 0-1.66.45c-.25 2.28 0 4.56-.19 6.84-.22 3-2.15 8-6.23 5.94a.92.92 0 0 0-1.22.32c-2.78 3.65-2.89 8.48-7 11a6.51 6.51 0 0 0-3.06 3.42q-.39 2.42-3.2 1.77a8.4 8.4 0 0 0-.53-.72 6.13 6.13 0 0 0-1.4-.78.9.9 0 0 0-1.09.62 3 3 0 0 1-2.35 2.58l-.13.06a.89.89 0 0 0-1.12.1c.08 0 .08.33-.1.17a.85.85 0 0 0-.09.22 2.06 2.06 0 0 1 .07-.23l-.17-.05c-.28-.11-.54-.29-.83-.38a1.72 1.72 0 0 0-1.82.35.9.9 0 0 0 0 1.26l.1.09a11.73 11.73 0 0 1-13.56-1.24c-2.06-1.75-4.52-3.8-7-2-1.84-.86-3.71-1.7-4.79-3.51-.91-1.54-.81-3.53-2-4.93a3.17 3.17 0 0 0-3.81-1c-3.75-4.1-5.47-9.33-7.56-14.4-1.31-3.19-3-6.33-5.77-8.26-.55-1.73-1.15-3.45-1.85-5.16a91.26 91.26 0 0 0-12.89-21.9c-5.74-7.27-11.17-14.45-15.5-22.63.06-.05.09-.1.07-.13-3.12-5.36-5.7-11-8.77-16.41l.14-.07a1 1 0 0 1-.11-.08 3.28 3.28 0 0 1-.72-1v-.1a1.22 1.22 0 0 1-.13-.41h-.09c-.61-1-1.23-2-1.89-3-2.35-3.53-5.21-6.69-7.62-10.18a65.75 65.75 0 0 1-5.76-10.24c-6.23-13.72-8-28.81-8.82-43.73a.7.7 0 0 0 .56-.8c-.27-.88-.51-1.77-.75-2.66 0-.65-.07-1.29-.1-1.94a.4.4 0 0 0-.41-.1 72.79 72.79 0 0 1-1.91-13.53c-.23-5.32.57-10.56.53-15.86a18.49 18.49 0 0 0-3.81-11.85 42.69 42.69 0 0 0-4.82-4.9c-.33-.4-.64-.8-1-1.21a30.91 30.91 0 0 0 5.14 2.51c4.66 1.82 9.29 3.77 14 5.42 4.49 1.57 9.28 1.44 13.72 2.92 3.39 1.13 8.5 4.08 10.78 7.7a5.7 5.7 0 0 1-1.43-1.38.76.76 0 0 0-1-.37c-2.6-1.64-6.85 1.35-9.2 2.36-4.58 2-9.15 2.62-13.47.93a1.34 1.34 0 0 1-1.29-.08 16.44 16.44 0 0 1-2.54-2.07 8.74 8.74 0 0 1-2-2.14 1.59 1.59 0 0 1-.1-.23.86.86 0 0 0-.19.53 3.65 3.65 0 0 0 1.29 2.87.9.9 0 0 0 .38.67 16.48 16.48 0 0 0 12 3.23 23.1 23.1 0 0 0 5.79-1.69c1.66-.69 7.35-4.21 8.83-2.53a1.49 1.49 0 0 1 .45.23.74.74 0 0 0 .29 0 8.68 8.68 0 0 1 1 .82 1.66 1.66 0 0 1 .44 1.37 1.28 1.28 0 0 1 .35.95 5.3 5.3 0 0 1-.45 1.81 3.34 3.34 0 0 0 1.93-3v-.23a5.76 5.76 0 0 1 .24 1.73.79.79 0 0 0 .24.62c1 8.48.1 17.2-1.26 25.57-2.06 12.71-5.39 25.31-6.53 38.12a1.38 1.38 0 0 0-.48.06 1.37 1.37 0 0 1-.47 1.08l-.17.44c-.29 8.64-2.13 17.19 3.09 24.85a22 22 0 0 0 20.09 9.31 1 1 0 0 0 .71-.38c6.85.1 13.33-3.62 19.43-6.26 5.29-2.29 11.1-2.69 16.66-4 .58-.06 1.15-.13 1.72-.22a.9.9 0 0 0 .47 0c.69-.16 1.37-.36 2-.58h.07l.22-.07c.27-.08.53-.17.79-.27a1.4 1.4 0 0 0 .43-.22 20.76 20.76 0 0 0 4.79-2.92.7.7 0 0 0 .28-.74 16.17 16.17 0 0 0 2.69-2.93 10 10 0 0 0 2.26-4.45 1.43 1.43 0 0 1 0-.36 16.37 16.37 0 0 0 .07-3.08 16.14 16.14 0 0 0-1.33-5.63 22.43 22.43 0 0 0-2.62-3.83 2.56 2.56 0 0 0-1.82-1.4.85.85 0 0 0-.43 0c1.94 2.49 3.57 4.88 3.8 7.92v.08c.12.36.23.72.33 1.1a11.09 11.09 0 0 1-1.63 8.47 14.25 14.25 0 0 1-2.89 3.12 22.16 22.16 0 0 1-4.61 2 .71.71 0 0 0-.58 1 41.33 41.33 0 0 1-7 1.94c-5.25 1.05-10.57 1.7-15.47 4-5.52 2.6-12 5.94-18.29 5.64a.79.79 0 0 0-.85.87 20.4 20.4 0 0 1-18.75-10.34 21.58 21.58 0 0 1-2.53-9.82 2.41 2.41 0 0 0 .5 0 19 19 0 0 1 .47-5 1.12 1.12 0 0 1 .29-.6c-.11-16.32 4.58-32.19 7.09-48.25 1.37-8.82 2.25-18 .78-26.88a45.78 45.78 0 0 0-1.28-5.51.88.88 0 0 0 0-.42 15.26 15.26 0 0 0-.59-1.55 77.89 77.89 0 0 0-3.81-9.16 54.75 54.75 0 0 0-4.44-5.74 1.47 1.47 0 0 1-.38-.86l-.85-.84a.12.12 0 0 0-.05.14c1.3 2.46 2.61 4.94 3.83 7.45a36.32 36.32 0 0 1 2.16 4.17 23.92 23.92 0 0 0-4.25-3 70.34 70.34 0 0 0-14.02-6.45c-5.18-1.67-10.69-2.47-15.75-4.41s-12.26-5.59-14.11-11.13a.86.86 0 0 0-.33-.45.82.82 0 0 0-.85-.74.92.92 0 0 0-.36.07c-.06-.6-.13-1.2-.18-1.81 0-.44.09-.88.15-1.32a.8.8 0 0 0 .14-.54v-.67a23.91 23.91 0 0 1 0-2.51 11.51 11.51 0 0 1 .2-2h-.22c.15-4.58.62-9.17.07-13.74-.65-5.4-3.14-10.2-5.69-14.93a.89.89 0 0 0-1.54.9 48.3 48.3 0 0 1 5 12.07.86.86 0 0 0-.15.45 148.16 148.16 0 0 0 .28 22.77 31.1 31.1 0 0 0 0 6l-.11.06c1.58 4.28 3.16 8.21 6.71 11.25a49.53 49.53 0 0 0 6.85 8.18.87.87 0 0 0 .64.24c3.77 4.37 4.41 9.33 4.1 14.92-.55 9.87-.41 19.14 2 28.65.81 16.07 2.31 32.43 9 47.26 3.45 7.63 8.79 13.54 13.39 20.42.62.94 1.22 1.89 1.8 2.85a230.16 230.16 0 0 0-60 18.28c-9.63 4.46-18.74 9.56-26.76 16.57-8.39 7.32-16.62 14.7-25.26 21.73a217 217 0 0 0-41 44.71c-11.71 16.78-21.68 34.69-31.53 52.59q-19.23 34.94-38.43 69.9a.79.79 0 0 0-.09.22c-5.18 3.91-11.18 8.28-14.54 13.94a18.37 18.37 0 0 0-2.27 8.34c-.28 3.86-.73 7.34-2.55 10.82-3.19 6.1-8.46 10.67-12.91 15.79s-7.13 10.84-9.36 17.16c-5.08 1.24-10.26 2.29-15.26 3.87-3.82 1.21-7.77 2.91-10.52 5.95-3.24 3.58-3.42 8.06-4.56 12.52-1.29 5.07-4.49 9.41-7.62 13.49a8.32 8.32 0 0 1-2.89 2.58 21.64 21.64 0 0 0-2.77 1.4c-1.62 1.16-2.18 3-2.55 4.82a16.89 16.89 0 0 1-.68 3 9.15 9.15 0 0 1-2.74 3.2l-7.19 6.45-12.22 11c-3.29 3-7.39 5.71-6.1 10.68.76 2.43 2.44 4.58 2.9 7.15.46 2.39-1.18 3.2-3.15 4-1 .38-1.94.79-2.89 1.24h5.67a4.58 4.58 0 0 0 2.67-4.87c-.46-4.51-5.5-8.76-1.57-12.94s8.67-7.8 12.93-11.63c4.05-3.63 8.54-7.07 12.26-11a9.35 9.35 0 0 0 2.22-5 10 10 0 0 1 .87-3.17c.66-1.13 1.85-1.55 3-2.08 4-1.85 6.73-6.66 8.92-10.32a29.66 29.66 0 0 0 2.64-5.55c.9-2.62 1.11-5.37 1.81-8 1.45-5.54 5.92-8.47 11.07-10.27a146.62 146.62 0 0 1 14.71-3.86 1.1 1.1 0 0 0 2.13.47l.15-.6a1.08 1.08 0 0 0 .59-.66 68.65 68.65 0 0 1 4-10 43 43 0 0 1 6.2-8.48c4.17-4.63 8.85-8.94 11.9-14.46a23.64 23.64 0 0 0 2.84-8.3c.47-3.46.13-7.06 1.66-10.29a24.78 24.78 0 0 1 5.88-7.21 110.72 110.72 0 0 1 8.73-7.3 1.16 1.16 0 0 0 .41-1.27l33.42-60.79c9.86-17.93 19.59-36 30.78-53.11 11-16.93 23.62-33 38.82-46.41 8.08-7.13 16.8-13.48 24.76-20.74 4-3.66 7.92-7.45 12.21-10.79a91 91 0 0 1 14.46-9 225.27 225.27 0 0 1 67.83-22c2.84 5 5.25 10.15 8 15.13a.14.14 0 0 0 0 .13c4.22 8.35 9.56 15.7 15.39 23a93.09 93.09 0 0 1 14.15 23.93c.36.89.68 1.79 1 2.69a.84.84 0 0 0-.37.09l.14.36a12.94 12.94 0 0 1 .91 3.18 1.36 1.36 0 0 1-.13.87v.4a63.26 63.26 0 0 1 3.86 14.62c.14 1.05.64 4.1 1.95 4.44a9.52 9.52 0 0 0 1.69 4.2 53.49 53.49 0 0 1 5.42 9.85.9.9 0 0 0 1.31.53l.47-.33 1.09 2.87a.9.9 0 0 0 1.3.53l.85-.52 1.42 3.21a.9.9 0 0 0 1.21.32l1.6.68a.91.91 0 0 0 1.31.53c1-.49 1.33-.07 2.27.61a.88.88 0 0 0 1.08-.14l.78-.84a17.72 17.72 0 0 0 4.88 3.28l.15.21c.48.63 1 1.26 1.47 1.87s1.07 1.26 1.63 1.86a.77.77 0 0 0 .14.59 147.34 147.34 0 0 0 22.3 25.24c3.63 3.28 7.44 6.89 12 8.81 5.38 2.28 11.33 3.17 16.83 5.16a133.29 133.29 0 0 1 16.74 7.75 26.17 26.17 0 0 0 14.85 3.28c3.09-.21 6-.37 9 .73 2.79 1 5.22 2.39 8.19 2.89a69.2 69.2 0 0 1 8.31 1.46c2.77.82 5.43 2 8.2 2.77 10.26 2.94 21 1.93 31.24-.68a.72.72 0 0 0 .75.38 377.66 377.66 0 0 0 100-21.54c27.73-10.19 53.33-26.85 71.54-50.38a115.13 115.13 0 0 0 20.45-40.71.87.87 0 0 0 0-.46 15.76 15.76 0 0 0 1.08-5.83c6.62 4 13.16 8.55 20.12 12a25.49 25.49 0 0 0 8.26 2.47 29.83 29.83 0 0 1 5.85.93c2.05.68 3.64 2 5.4 3.23a29.24 29.24 0 0 0 8.08 3.43 28.39 28.39 0 0 1 10.61 5.92c5.51 4.79 10.69 9.87 16.46 14.36a175.94 175.94 0 0 0 17.21 11.85c2.81 1.7 5.78 3.19 8.48 5.07 3.43 2.38 6.12 5.63 8.92 8.69 5 5.41 9.68 11.31 15.49 15.84s12.23 7.53 18.79 10.42c9.43 4.15 21 9 27.67 17.32v-2.53c-4.48-5-10.5-8.79-16.51-11.71m-389.37-425c-2.09 13.68-3.85 27.53-3.17 41.4.57 11.74 2.23 25.85 10.27 35 .75.86 2-.4 1.26-1.26-4.07-4.66-6-10.54-7.41-16.48a99.27 99.27 0 0 1-2.42-19.58c-.39-13 1.24-25.91 3.2-38.71.17-1.12-1.54-1.6-1.71-.47m35.44-15.63a183.32 183.32 0 0 0 6.22 63.28.89.89 0 0 0 1.71-.47 181.85 181.85 0 0 1-6.15-62.81c.09-1.14-1.69-1.13-1.78 0m54.24 49.29c1.84-13.61-.47-27.47-3-40.85-2.68-14.17-6.27-28.14-9.86-42.09a.89.89 0 0 0-1.71.47c3.4 13.21 6.8 26.44 9.43 39.83 2.69 13.74 5.33 28.16 3.43 42.17-.15 1.12 1.56 1.6 1.71.47m57.9-34.62c2.59-23.54-10.18-44.46-22.27-63.51a.89.89 0 0 0-1.53.9c11.94 18.81 24.59 39.36 22 62.62-.12 1.14 1.65 1.13 1.78 0m-328-46.48a222.07 222.07 0 0 1 67.66-15.51c22.56-1.7 45.47-1.71 67.37-8.09a.89.89 0 0 0-.47-1.71c-22.47 6.54-46 6.32-69.1 8.2a220.77 220.77 0 0 0-65.88 15.43c-1 .43-.59 2.15.47 1.71m-21.94 60.39c40.84-22.6 84.85-37.21 129-51.65 11.57-3.78 23-8.09 33.24-14.83 1-.63.06-2.17-.9-1.53-9.36 6.17-19.76 10.3-30.34 13.83-10.76 3.59-21.61 6.89-32.37 10.5-21.68 7.27-43.16 15.2-64.06 24.51q-18.11 8.07-35.51 17.63a.89.89 0 0 0 .9 1.53m148.13-48.1c-13.5 18.83-36.65 25.55-57.24 33.49a418.54 418.54 0 0 0-61.25 29.58.89.89 0 0 0 .9 1.53 416.43 416.43 0 0 1 50.08-25.08c16.52-6.91 34.29-11.71 49.66-21.11a65.63 65.63 0 0 0 19.39-17.52c.67-.93-.87-1.82-1.53-.9m107.57-72.69c.69-1-.85-1.91-1.53-1-12.79 18-31.48 29.18-49.58 39.92a.93.93 0 0 0 .9 1.63c18.4-10.91 37.22-22.33 50.21-40.55m-104.2 248.45a186.89 186.89 0 0 0-49.25 1.64c-8.69 1.51-16.38 5.66-24.51 8.88-3.3 1.31-18.71 7.9-24.64 5.51a.23.23 0 0 0-.2-.16 1.29 1.29 0 0 0-.38 0 2 2 0 0 0-.84-.29l-.13-.09c-.37-.55-.7-1.11-1-1.49a14.64 14.64 0 0 1-1.58-2.55 7.61 7.61 0 0 0 1.23 0 2.73 2.73 0 0 0 .86-.22 2.89 2.89 0 0 0 1-.38 29.81 29.81 0 0 1 3.89-1.93c4.92-1.74 9.9-3.36 14.84-5 10.22-3.47 20.44-7.09 31.07-9.12a118.84 118.84 0 0 1 33.05-1.6c9 .83 18.7 2.38 26.34 7.56l-9.32-.84a.78.78 0 0 0-.52.12m6.64 2.21l6.24.56a.9.9 0 0 0 .63-1.52c-7.15-6-16.21-8.15-25.25-9.34a120.32 120.32 0 0 0-32.11.12c-11.33 1.56-22.17 5-33 8.68l-15.92 5.41c-2.06.7-4.12 1.37-6.13 2.2-1.43.59-1.79 1-3.47.54a30 30 0 0 1-4.08-1.72.86.86 0 0 0-1.09.63 37.74 37.74 0 0 0 4.11 6.18 16.83 16.83 0 0 1 1 1.37 19.67 19.67 0 0 0 1.89 2l.38.28a1 1 0 0 0 .34-.19c9.11 4.4 38-10.29 43-12 9.65-3.37 20.64-3.88 30.78-4.29a199.18 199.18 0 0 1 32 1.33.71.71 0 0 0 .64-.21m175.16 2.77c.58 12.77-11.33 20.77-17.92 30.28 1.17-1.05 2.38-2 3.3-2.85q2.06-1.88 4.22-3.63c3.91-4.43 7.94-8.87 10.25-14a49.24 49.24 0 0 0 .38-10.3.83.83 0 0 0-.1.46m4.71-18.24a.92.92 0 0 0 .24.53v.51a.89.89 0 0 0 1.78 0 41.24 41.24 0 0 1 1.79-10.38 40 40 0 0 1 2.46-10.61.91.91 0 0 0-.78.59 79.93 79.93 0 0 0-4.65 14.86 101.09 101.09 0 0 0-4.26-10.72 32.74 32.74 0 0 1-2.55-9.44 1.3 1.3 0 0 1-.23-.51 22.46 22.46 0 0 1-.49-9.55 26.15 26.15 0 0 0 .33 16.85c2.09 6 5.55 11.46 6.35 17.84" fill="#fff"/></svg>