<svg xmlns="http://www.w3.org/2000/svg" viewBox="0 0 17.71 14"><path d="M0 12.41a10.48 10.48 0 0 0 5.57 1.59 10.12 10.12 0 0 0 10.34-10.06v-.46a7.26 7.26 0 0 0 1.81-1.83 7.34 7.34 0 0 1-2.09.55 3.56 3.56 0 0 0 1.6-2 7.42 7.42 0 0 1-2.31.86 3.68 3.68 0 0 0-2.66-1.06 3.58 3.58 0 0 0-3.63 3.53 3.45 3.45 0 0 0 .09.81 10.41 10.41 0 0 1-7.49-3.69 3.45 3.45 0 0 0-.49 1.77 3.51 3.51 0 0 0 1.62 2.94 3.67 3.67 0 0 1-1.65-.44v.08a3.57 3.57 0 0 0 2.91 3.43 3.7 3.7 0 0 1-1 .12 3.66 3.66 0 0 1-.62-.06 3.62 3.62 0 0 0 3.39 2.45 7.41 7.41 0 0 1-4.52 1.52 7.28 7.28 0 0 1-.87 0"/></svg>