<svg width="338" height="273" viewBox="0 0 338 273" xmlns="http://www.w3.org/2000/svg"><path d="M337.435 84.545c-1.4-8.276-5.581-16.331-10.893-23.776-1.616-2.281-3.328-4.54-5.142-6.757-.079-.634-.509-1.063-1.129-1.359-3.61-4.299-7.62-8.423-12.09-12.207-3.18-2.709-6.632-5.175-10.283-7.445.195-.299.051-.757-.517-.835-.429-.059-.85-.146-1.266-.25-12.578-7.576-27.427-12.99-41.568-17.961-7.392-2.636-14.989-4.933-22.768-6.387-3.133-.821-5.741-1.426-8.378-2.311-2.375-.692-4.602-1.297-6.845-1.836-6.002-1.443-12.103-2.445-18.242-2.979-12.547-1.094-25.212-.171-37.462 2.869-13.094 4.133-25.452 8.88-36.97 15.24-9.774 5.481-19.151 11.381-30.228 15.816-.156-.275-11.691 5.782-11.691 5.782-3.616 1.269-7.142 3.777-10.635 6.682-.606.415-.676.524-.752.631-.881.747-1.76 1.514-2.638 2.29-.855.556-1.734 1.06-2.443 1.556-1.806 1.261-3.611 2.523-5.417 3.782-2.134 1.488-4.281 2.96-6.52 4.262-8.93 4.035-17.343 9.041-24.722 15.463-7.996 7.003-14.659 15.218-20.262 23.958.201.44.393.884.567 1.336 2.186 4.81 3.498 9.62 4.373 14.867.437 3.498.437 6.559 0 10.057-2.624 15.304-11.369 27.547-13.118 42.414-.875 11.369-1.749 27.985 14.43 31.483 1.312 0 2.624-.437 3.935-.875 1.312-.875 2.186-2.186 3.498-3.498 9.182-11.369 8.308-32.794 27.11-33.232 3.061 0 4.81 4.81 4.81 9.62.875 20.988-3.935 41.102-4.81 61.653-.437 8.308-4.81 19.239 4.81 24.486 6.122 3.498 13.555 2.624 19.677-1.749.875-.875 2.186-2.186 2.624-3.498 4.81-16.616 3.061-50.722 28.859-43.726 1.312.437 3.061 2.186 3.498 3.498 6.122 14.43 0 29.296 2.624 44.163.437 4.373 5.684 4.373 8.745 3.061 10.494-4.373 12.68-17.053 20.114-24.924 6.559-6.559 16.179-5.247 22.737.875 3.061 3.498 3.935 8.308 3.061 13.555-1.749 7.871-7.871 13.118-8.745 20.988-.437 3.935 5.684 4.373 7.433 1.749 8.308-8.745 17.053-23.175 29.734-18.802 3.237 1.166 5.011 3.41 5.924 6.246 28.833-12.635 54.79-28.379 76.415-46.04 10.545-8.501 20.05-17.463 28.353-26.745 4.174-4.648 8.377-9.394 10.877-14.645 2.555-5.366 3.543-11.003 6.209-16.236 2.803-5.5 5.706-10.826 5.544-16.795-.047-1.744-.326-3.462-.793-5.142-1.134-.583-1.373-1.924-1.007-2.756-.658-1.663-1.527-3.237-2.582-4.74.594-.809 1.02-1.69 1.946-2.345 1.446-1.02 2.761-1.694 3.794-3.034.899-1.165 1.539-2.449 2.508-3.568.947-1.093 2.194-2.022 2.75-3.309.624-1.445.43-3.152.401-4.675-.017-.874-.052-1.748-.094-2.621 2.916-6.756 3.89-14.054 2.652-21.324z" fill="#ff6697"/></svg>