<svg xmlns="http://www.w3.org/2000/svg" viewBox="0 0 209.62 147.98"><path d="M206.55,108c0-.87-0.05-1.74-0.09-2.61a37.36,37.36,0,0,0,2.64-21.23c-1.4-8.24-5.56-16.26-10.85-23.67-1.61-2.27-3.32-4.52-5.12-6.73A1.75,1.75,0,0,0,192,52.42a100.89,100.89,0,0,0-12-12.15,84.78,84.78,0,0,0-10.25-7.41,0.56,0.56,0,0,0-.51-0.83,11.81,11.81,0,0,1-1.26-.25c-12.53-7.54-27.33-12.93-41.42-17.88a149.7,149.7,0,0,0-22.69-6.36,0.5,0.5,0,0,0-.41-0.32,56.65,56.65,0,0,1-7.94-2l-0.16,0q-3.31-1-6.66-1.8a123.87,123.87,0,0,0-18.18-3A114,114,0,0,0,33.15,3.3a0.56,0.56,0,0,0-.44.58A173.9,173.9,0,0,0,0,16.51c4.27,3.8,6.82,9.59,7.9,15.68,0.87,4.35,1.31,8.71,0,12.62C5.72,50,2.67,55.26.93,60.92a12.41,12.41,0,0,0,0,5.66c1.31,3.48,5.66,3.48,7,2.18,4.36-4.35,4.36-11.75,7-17.85C18.79,41.33,26.2,27.4,38,31.75c7.41,2.61,11.76,11.75,9.15,22.2C44.5,65.27,38,80.07,51.9,85.73a5.16,5.16,0,0,0,4.36-.44c0.87-.44,1.74-2.18,2.18-3.48,2.18-11.75-1.31-25.25,10.89-32.21,5.66-3,11.76-4.35,17.86-2.61,2.61,0.87,3.92,4.79,3.92,8.71-0.44,27-10,58.76,13.51,79.66,2.18,1.74,4.79,2.61,7.41,1.74a7.51,7.51,0,0,0,2.61-2.61c4.79-18.72,2.18-40.92,19.17-54a3.42,3.42,0,0,1,4.79.44c10,14.8,3.92,30.91,7,47.45,2.18,10,11.33,23.94,22.22,18.28,3.92-2.18,6.1-7.84,6.54-13.06,1.31-15.24-1.31-32.65,14.81-42.22,2.61-1.74,6.54-.44,9.15,2.18a38.19,38.19,0,0,1,5.23,9.14c1,2.56,2,5.1,3.07,7.6,0-.78,0-1.56,0-2.3" fill="#ff6697"/></svg>