<svg xmlns="http://www.w3.org/2000/svg" viewBox="0 0 90 35.96"><title>logo</title><path d="M88.29,0H1.71A1.71,1.71,0,0,0,0,1.71V34.25A1.71,1.71,0,0,0,1.71,36H88.29A1.71,1.71,0,0,0,90,34.25V1.71A1.71,1.71,0,0,0,88.29,0ZM27.56,30.18H10.27V5.78h5.11v20H27.56v4.38h0Zm3-4.38h5.06v4.38H30.58V25.79Zm0-20h5.06V22.17H30.58V5.78Zm28.5,4.32H46.75v5.61H57.55v4.24H46.74V30.18H41.67V5.82h17.4V10.1ZM81.25,30.18H62.76V5.77H80.65V10.1H67.74v5.18H79.59v4.24H67.74v6.27H81.25v4.38h0Z"/><path d="M88.29,0H1.71A1.71,1.71,0,0,0,0,1.71V34.25A1.71,1.71,0,0,0,1.71,36H88.29A1.71,1.71,0,0,0,90,34.25V1.71A1.71,1.71,0,0,0,88.29,0ZM27.56,30.18H10.27V5.78h5.11v20H27.56v4.38h0Zm3-4.38h5.06v4.38H30.58V25.79Zm0-20h5.06V22.17H30.58V5.78Zm28.5,4.32H46.75v5.61H57.55v4.24H46.74V30.18H41.67V5.82h17.4V10.1ZM81.25,30.18H62.76V5.77H80.65V10.1H67.74v5.18H79.59v4.24H67.74v6.27H81.25v4.38h0Z" fill="#fff"/></svg>