<svg xmlns="http://www.w3.org/2000/svg" viewBox="0 0 11.65 17.91"><path d="M6.84 8.83a4.45 4.45 0 0 0 3.52-5.3 4.61 4.61 0 0 0-5.62-3.37c-6.15 1.66-3.66 9.91 2.1 8.67zm-1.6-6.46a2.27 2.27 0 0 1 2.76 1.57 2.19 2.19 0 0 1-1.59 2.66 2.19 2.19 0 1 1-1.17-4.23zm3.81 7.17a6.76 6.76 0 0 1-6.37 0 3.6 3.6 0 0 0-1.27-.54c-1.33-.13-3 2 1.65 3.38.42.13 1.3.24 1.59.39l-3.18 3a1.21 1.21 0 0 0 1 2.19c.89-.14 2.51-2.37 3.43-2.81.41.47 2.66 2.74 3.38 2.82a1.19 1.19 0 0 0 1-2.11 43.92 43.92 0 0 1-3.28-3.15 11.18 11.18 0 0 0 3-.93c3-1.42 1.28-2.78.44-2.82a2.34 2.34 0 0 0-1.39.58z"/></svg>