<svg xmlns="http://www.w3.org/2000/svg" viewBox="0 0 25.69 14"><path d="M12.57 13.94h1.53a1.33 1.33 0 0 0 .7-.29 1 1 0 0 0 .2-.65s0-2 .93-2.26 2.15 1.9 3.44 2.74a2.52 2.52 0 0 0 1.71.5h3.43s1.79-.11.94-1.45a11.09 11.09 0 0 0-2.55-2.82c-2.15-1.91-1.86-1.6.73-4.9 1.58-2 2.21-3.24 2-3.76l-1.33-.41h-3.86a.91.91 0 0 0-.5.08 1 1 0 0 0-.34.4 21.05 21.05 0 0 1-1.43 2.88c-1.72 2.81-2.41 3-2.69 2.78-.65-.4-.48-1.62-.48-2.48 0-2.7.43-3.83-.84-4.12a6.94 6.94 0 0 0-1.81-.18 8.68 8.68 0 0 0-3.2.31c-.44.21-.78.69-.57.69a1.77 1.77 0 0 1 1.14.55 3.43 3.43 0 0 1 .38 1.67s.23 3.18-.53 3.58c-.57.27-1.24-.28-2.77-2.8a23.07 23.07 0 0 1-1.38-2.74 1.1 1.1 0 0 0-.32-.41 1.65 1.65 0 0 0-.59-.23h-3.67a1.29 1.29 0 0 0-.76.26.73.73 0 0 0 0 .62s2.86 6.43 6.12 9.67a9 9 0 0 0 6.37 2.77"/></svg>